<?xml version="1.0" encoding="UTF-8"?>
<!DOCTYPE svg PUBLIC "-//W3C//DTD SVG 1.1//EN" "http://www.w3.org/Graphics/SVG/1.1/DTD/svg11.dtd">
<!-- Creator: CorelDRAW 2018 (64-Bit) -->
<svg xmlns="http://www.w3.org/2000/svg" xml:space="preserve" width="207.664mm" height="149.688mm" version="1.1" style="shape-rendering:geometricPrecision; text-rendering:geometricPrecision; image-rendering:optimizeQuality; fill-rule:evenodd; clip-rule:evenodd"
viewBox="0 0 20769.18 14970.76"
 xmlns:xlink="http://www.w3.org/1999/xlink">
 <defs>
  <style type="text/css">
   <![CDATA[
    .fil0 {fill:#8FA6BB;fill-rule:nonzero}
   ]]>
  </style>
 </defs>
 <g id="Слой_x0020_1">
  <metadata id="CorelCorpID_0Corel-Layer"/>
  <path class="fil0" d="M1267.67 0l10666.66 0c349.3,0 666.28,142.32 895.82,371.85 229.53,229.54 371.85,546.52 371.85,895.82l0 1041.12 4418.2 0c118.17,0 221.26,64.56 275.94,160.32l2814.74 4024.79c33.53,48.02 51.88,102.09 56.06,156.55 0.96,8.09 1.6,16.27 1.95,24.54l0.29 0 0 13.2 0 4181.03c0,175.37 -142.17,317.54 -317.54,317.54l-1493.82 0c59.52,219.24 91.28,449.88 91.28,687.95 0,723.39 -293.25,1378.33 -767.33,1852.4 -266.8,266.81 -590.88,476.33 -952.2,608.55l1798.94 0 0 635.09 -17597.16 0 0 -635.09 1772.44 0c-361.32,-132.22 -685.4,-341.75 -952.2,-608.55 -474.08,-474.07 -767.33,-1129.01 -767.33,-1852.4 0,-238.07 31.76,-468.71 91.28,-687.95l-407.86 0c-349.3,0 -666.28,-142.32 -895.82,-371.85 -229.53,-229.54 -371.85,-546.52 -371.85,-895.82l0 -1352.12 0 -7299.31c0,-349.3 142.32,-666.28 371.85,-895.82 229.54,-229.53 546.52,-371.85 895.82,-371.85zm14261.51 14335.68c-361.32,-132.22 -685.4,-341.75 -952.21,-608.55 -474.08,-474.07 -767.33,-1129.01 -767.33,-1852.4 0,-238.07 31.75,-468.72 91.28,-687.95l-1016.46 0 -6152.03 0c59.52,219.24 91.28,449.88 91.28,687.95 0,723.39 -293.25,1378.33 -767.33,1852.4 -266.81,266.81 -590.89,476.33 -952.21,608.55l10425 0zm900.19 -1839.1c171.75,0 327.23,-69.6 439.74,-182.11 112.52,-112.51 182.11,-267.99 182.11,-439.74 0,-171.75 -69.6,-327.23 -182.11,-439.74 -112.51,-112.52 -267.99,-182.11 -439.74,-182.11 -171.75,0 -327.23,69.6 -439.74,182.11 -112.52,112.51 -182.11,267.99 -182.11,439.74 0,171.75 69.6,327.23 182.11,439.74 112.51,112.52 267.99,182.11 439.74,182.11zm888.76 266.91c-227.46,227.47 -541.7,368.18 -888.76,368.18 -347.06,0 -661.3,-140.71 -888.76,-368.18 -227.47,-227.46 -368.18,-541.7 -368.18,-888.76 0,-347.06 140.71,-661.3 368.18,-888.76 227.46,-227.47 541.7,-368.18 888.76,-368.18 347.06,0 661.3,140.71 888.76,368.18 227.47,227.46 368.18,541.7 368.18,888.76 0,347.06 -140.71,661.3 -368.18,888.76zm900.24 -1749.09c-1.81,-3.52 -3.54,-7.08 -5.23,-10.68 -96.98,-198.26 -226.01,-377.98 -380.39,-532.36 -359.12,-359.13 -855.3,-581.27 -1403.38,-581.27 -548.07,0 -1044.25,222.14 -1403.38,581.27 -154.38,154.38 -283.4,334.09 -380.39,532.36 -1.68,3.6 -3.41,7.16 -5.23,10.68 -125.37,260.26 -195.65,552.09 -195.65,860.34 0,548.07 222.14,1044.26 581.27,1403.38 359.13,359.13 855.3,581.27 1403.38,581.27 548.07,0 1044.26,-222.14 1403.38,-581.27 359.13,-359.12 581.27,-855.3 581.27,-1403.38 0,-308.24 -70.26,-600.07 -195.65,-860.34zm472.5 -462.7l1443.22 0 0 -3545.95 -5186.58 0c-175.37,0 -317.54,-142.17 -317.54,-317.54l0 -2580.04c0,-175.37 142.17,-317.54 317.54,-317.54l3101.04 0 -592.17 -846.74 -4254.38 0 0 5623.11 0 1984.71 965.86 0c113.58,-193.72 251.3,-371.56 409.1,-529.36 474.09,-474.09 1129.02,-767.33 1852.4,-767.33 723.39,0 1378.33,293.25 1852.4,767.33 157.79,157.79 295.53,335.64 409.1,529.36zm-14486.89 1944.89c171.75,0 327.23,-69.6 439.74,-182.11 112.52,-112.51 182.11,-267.99 182.11,-439.74 0,-171.75 -69.6,-327.23 -182.11,-439.74 -112.51,-112.52 -267.99,-182.11 -439.74,-182.11 -171.75,0 -327.23,69.6 -439.74,182.11 -112.52,112.51 -182.11,267.99 -182.11,439.74 0,171.75 69.6,327.23 182.11,439.74 112.51,112.52 267.99,182.11 439.74,182.11zm888.76 266.91c-227.46,227.47 -541.7,368.18 -888.76,368.18 -347.06,0 -661.3,-140.71 -888.76,-368.18 -227.47,-227.46 -368.18,-541.7 -368.18,-888.76 0,-347.06 140.71,-661.3 368.18,-888.76 227.46,-227.47 541.7,-368.18 888.76,-368.18 347.06,0 661.3,140.71 888.76,368.18 227.47,227.46 368.18,541.7 368.18,888.76 0,347.06 -140.71,661.3 -368.18,888.76zm899.66 -1750.28c-1.57,-3.09 -3.1,-6.21 -4.58,-9.36 -97,-198.33 -226.05,-378.09 -380.46,-532.5 -352.82,-352.82 -837.91,-573.41 -1374.53,-581.05l-5.89 -0.08c-7.64,-0.09 -15.29,-0.14 -22.95,-0.14 -7.66,0 -15.31,0.05 -22.95,0.14l-5.89 0.08c-536.63,7.64 -1021.73,228.23 -1374.53,581.05 -359.13,359.13 -581.27,855.3 -581.27,1403.38 0,548.07 222.14,1044.26 581.27,1403.38 359.12,359.13 855.3,581.27 1403.38,581.27 548.07,0 1044.25,-222.14 1403.38,-581.27 359.13,-359.12 581.27,-855.3 581.27,-1403.38 0,-308.71 -70.49,-600.95 -196.23,-861.52zm-4049.92 -461.52c113.58,-193.73 251.31,-371.57 409.1,-529.36 447.16,-447.17 1055.25,-733.41 1729.9,-764.47l9.56 -0.42 16.34 -0.67c8.91,-0.33 17.84,-0.6 26.78,-0.84l8.64 -0.19 21.07 -0.41 11.18 -0.15c9.63,-0.12 19.26,-0.18 28.91,-0.18 9.65,0 19.28,0.07 28.91,0.18l11.18 0.15 21.07 0.41 8.64 0.19c8.94,0.24 17.86,0.51 26.78,0.84l16.34 0.67 9.56 0.42c674.65,31.05 1282.73,317.3 1729.9,764.47 157.79,157.79 295.53,335.64 409.1,529.36l6101.43 0 0 -1667.16 -11931.83 0 0 1034.58c0,173.99 71.11,332.11 185.78,446.8 114.69,114.68 272.81,185.78 446.8,185.78l674.81 0zm-1307.4 -2302.25l11931.83 0 0 -5623.11 0 -1358.66c0,-173.99 -71.11,-332.11 -185.78,-446.8 -114.69,-114.68 -272.81,-185.78 -446.8,-185.78l-10666.66 0c-173.99,0 -332.11,71.11 -446.8,185.78 -114.68,114.69 -185.78,272.81 -185.78,446.8l0 6981.77zm19217.82 -1878.78l-1360.2 -1944.95 -3227.64 0 0 1944.95 4587.85 0z"/>
 </g>
</svg>
