<?xml version="1.0" encoding="UTF-8"?>
<!DOCTYPE svg PUBLIC "-//W3C//DTD SVG 1.1//EN" "http://www.w3.org/Graphics/SVG/1.1/DTD/svg11.dtd">
<!-- Creator: CorelDRAW 2018 (64-Bit) -->
<svg xmlns="http://www.w3.org/2000/svg" xml:space="preserve" width="209.27mm" height="209.27mm" version="1.1" style="shape-rendering:geometricPrecision; text-rendering:geometricPrecision; image-rendering:optimizeQuality; fill-rule:evenodd; clip-rule:evenodd"
viewBox="0 0 20927.04 20927.04"
 xmlns:xlink="http://www.w3.org/1999/xlink">
 <defs>
  <style type="text/css">
   <![CDATA[
    .fil0 {fill:#8FA6BB;fill-rule:nonzero}
   ]]>
  </style>
 </defs>
 <g id="Слой_x0020_1">
  <metadata id="CorelCorpID_0Corel-Layer"/>
  <path class="fil0" d="M10463.52 0c2889.37,0 5505.26,1171.18 7398.8,3064.72 1893.54,1893.54 3064.72,4509.43 3064.72,7398.8 0,2889.37 -1171.18,5505.26 -3064.72,7398.8 -1893.54,1893.54 -4509.43,3064.72 -7398.8,3064.72 -2889.37,0 -5505.26,-1171.18 -7398.8,-3064.72 -1893.54,-1893.54 -3064.72,-4509.43 -3064.72,-7398.8 0,-2889.37 1171.18,-5505.26 3064.72,-7398.8 1893.54,-1893.54 4509.43,-3064.72 7398.8,-3064.72zm6949.84 3513.68c-1778.59,-1778.59 -4235.74,-2878.68 -6949.84,-2878.68 -2714.1,0 -5171.25,1100.09 -6949.84,2878.68 -1778.59,1778.59 -2878.68,4235.74 -2878.68,6949.84 0,2714.1 1100.09,5171.25 2878.68,6949.84 1778.59,1778.59 4235.74,2878.68 6949.84,2878.68 2714.1,0 5171.25,-1100.09 6949.84,-2878.68 1778.59,-1778.59 2878.68,-4235.74 2878.68,-6949.84 0,-2714.1 -1100.09,-5171.25 -2878.68,-6949.84zm-6949.84 -2005.55c2472.92,0 4711.76,1002.39 6332.39,2623 1620.61,1620.61 2623,3859.48 2623,6332.39 0,2472.91 -1002.39,4711.78 -2623,6332.39 -1620.63,1620.61 -3859.47,2623 -6332.39,2623 -2472.92,0 -4711.76,-1002.39 -6332.39,-2623 -1620.61,-1620.61 -2623,-3859.48 -2623,-6332.39 0,-2472.91 1002.39,-4711.78 2623,-6332.39 1620.63,-1620.61 3859.47,-2623 6332.39,-2623zm5883.43 3071.96c-1505.68,-1505.67 -3585.8,-2436.96 -5883.43,-2436.96 -2297.63,0 -4377.75,931.29 -5883.43,2436.96 -1505.67,1505.67 -2436.96,3585.79 -2436.96,5883.43 0,2297.64 931.29,4377.76 2436.96,5883.43 1505.68,1505.67 3585.8,2436.96 5883.43,2436.96 2297.63,0 4377.75,-931.29 5883.43,-2436.96 1505.67,-1505.67 2436.96,-3585.79 2436.96,-5883.43 0,-2297.64 -931.29,-4377.76 -2436.96,-5883.43zm-7934.76 1286.18c0,-233.8 189.54,-423.34 423.34,-423.34 233.8,0 423.34,189.54 423.34,423.34l0 9538.24c0,233.8 -189.54,423.34 -423.34,423.34 -233.8,0 -423.34,-189.54 -423.34,-423.34l0 -9538.24zm3492.48 6813c233.8,0 423.34,189.54 423.34,423.34 0,233.8 -189.54,423.34 -423.34,423.34l-4431.78 0c-233.8,0 -423.34,-189.54 -423.34,-423.34 0,-233.8 189.54,-423.34 423.34,-423.34l4431.78 0zm-1799.18 -2420.99c233.8,0 423.34,189.54 423.34,423.34 0,233.8 -189.54,423.34 -423.34,423.34l-2632.6 0c-233.8,0 -423.34,-189.54 -423.34,-423.34 0,-233.8 189.54,-423.34 423.34,-423.34l2632.6 0zm-1269.96 -4815.35l2577.99 0c758.51,0 1446.91,309.15 1945.56,807.78 498.63,498.65 807.78,1187.05 807.78,1945.56l0 155.35c0,758.51 -309.15,1446.92 -807.78,1945.55 -498.65,498.65 -1187.05,807.79 -1945.56,807.79l-2577.99 0c-233.8,0 -423.34,-189.54 -423.34,-423.34l0 -4815.35c0,-233.8 189.54,-423.34 423.34,-423.34zm2577.99 846.68l-2154.65 0 0 3968.67 2154.65 0c524.8,0 1001.42,-214.21 1346.94,-559.73 345.51,-345.51 559.72,-822.13 559.72,-1346.93l0 -155.35c0,-524.8 -214.21,-1001.42 -559.72,-1346.94 -345.52,-345.51 -822.14,-559.72 -1346.94,-559.72z"/>
 </g>
</svg>
