<?xml version="1.0" encoding="UTF-8"?>
<!DOCTYPE svg PUBLIC "-//W3C//DTD SVG 1.1//EN" "http://www.w3.org/Graphics/SVG/1.1/DTD/svg11.dtd">
<!-- Creator: CorelDRAW 2018 (64-Bit) -->
<svg xmlns="http://www.w3.org/2000/svg" xml:space="preserve" width="198.871mm" height="196.328mm" version="1.1" style="shape-rendering:geometricPrecision; text-rendering:geometricPrecision; image-rendering:optimizeQuality; fill-rule:evenodd; clip-rule:evenodd"
viewBox="0 0 19859.8 19605.76"
 xmlns:xlink="http://www.w3.org/1999/xlink">
 <defs>
  <style type="text/css">
   <![CDATA[
    .fil0 {fill:#8FA6BB}
   ]]>
  </style>
 </defs>
 <g id="Слой_x0020_1">
  <metadata id="CorelCorpID_0Corel-Layer"/>
  <g id="_5784678832">
   <path class="fil0" d="M9995.86 2947.57l549.38 1701.94c9.42,29.14 35.46,48.07 66.09,48l1788.36 -3.42c30.6,-0.07 56.6,18.8 66.05,47.87 9.49,29.11 -0.48,59.67 -25.28,77.6l-1448.81 1048.39c-24.84,17.97 -34.76,48.59 -25.25,77.74l555.87 1699.79c9.52,29.08 -0.42,59.67 -25.19,77.64 -24.73,17.97 -56.87,17.94 -81.57,-0.11l-1444.77 -1053.97c-24.77,-18.08 -56.95,-18.08 -81.71,0l-1444.78 1053.97c-24.7,18.05 -56.84,18.08 -81.57,0.11 -24.8,-17.98 -34.69,-48.56 -25.18,-77.64l555.86 -1699.79c9.53,-29.15 -0.41,-59.78 -25.25,-77.74l-1448.8 -1048.39c-24.81,-17.94 -34.77,-48.49 -25.32,-77.6 9.48,-29.07 35.48,-47.94 66.08,-47.87l1788.37 3.42c30.63,0.07 56.66,-18.86 66.08,-48l549.38 -1701.94c9.42,-29.11 35.39,-48.01 65.95,-48.01 30.59,0 56.56,18.9 65.98,48.01z"/>
   <path class="fil0" d="M19859.8 7218.58c-175.21,2006.14 -534.38,4020.99 -1191.41,6035.89 -657.07,2006.13 -1533.07,3898.38 -2584.32,5632.93 -1971.1,464.31 -4021.02,718.36 -6132.28,718.36 -2111.22,0 -4169.92,-236.53 -6141.01,-709.59l-8.76 0c-1051.25,-1725.8 -1927.29,-3600.53 -2575.55,-5615.43 -648.28,-2006.13 -1068.78,-4038.51 -1226.46,-6062.16l0 -8.76c1322.82,-1541.84 2838.37,-2952.25 4537.89,-4187.47 1708.28,-1243.98 3530.44,-2242.67 5396.38,-3022.35 1857.2,779.68 3670.6,1778.37 5378.88,3013.58 1708.28,1243.99 3223.83,2654.4 4537.89,4196.24l8.76 8.76zm-4257.56 11020.55l0 0c963.65,-1611.91 1752.09,-3355.23 2365.31,-5221.2 595.71,-1839.69 954.88,-3705.62 1130.09,-5545.3 -1235.22,-1410.43 -2645.65,-2706.96 -4222.51,-3854.58 -1576.88,-1147.61 -3241.36,-2076.21 -4940.87,-2820.84 -1717.01,735.88 -3381.48,1673.24 -4958.36,2829.61 -1576.87,1138.85 -2969.77,2426.63 -4204.99,3810.77l8.76 8.76c166.45,1874.73 551.9,3749.43 1147.61,5606.63 595.71,1857.2 1392.91,3583.01 2339.03,5177.4 1830.93,411.74 3740.7,630.75 5685.47,630.75 1944.81,0 3845.81,-219.01 5659.23,-621.99l-8.77 0zm-5667.97 -3872.1l0 0 5632.93 3828.3 -5632.93 -6903.2 -5632.91 6903.2 5632.91 -3828.3zm0 -3074.91l0 0 7928.16 -3442.8c-2409.11,420.5 -5378.89,849.76 -7928.16,849.76 -2549.25,0 -5519.03,-429.26 -7928.13,-849.76l7928.13 3442.8z"/>
  </g>
 </g>
</svg>
