<?xml version="1.0" encoding="UTF-8"?>
<!DOCTYPE svg PUBLIC "-//W3C//DTD SVG 1.1//EN" "http://www.w3.org/Graphics/SVG/1.1/DTD/svg11.dtd">
<!-- Creator: CorelDRAW 2018 (64-Bit) -->
<svg xmlns="http://www.w3.org/2000/svg" xml:space="preserve" width="204.966mm" height="207.831mm" version="1.1" style="shape-rendering:geometricPrecision; text-rendering:geometricPrecision; image-rendering:optimizeQuality; fill-rule:evenodd; clip-rule:evenodd"
viewBox="0 0 20516 20802.8"
 xmlns:xlink="http://www.w3.org/1999/xlink">
 <defs>
  <style type="text/css">
   <![CDATA[
    .fil0 {fill:#8FA6BB;fill-rule:nonzero}
   ]]>
  </style>
 </defs>
 <g id="Слой_x0020_1">
  <metadata id="CorelCorpID_0Corel-Layer"/>
  <path class="fil0" d="M7901.5 1895.32l-2409.4 0 -2620.69 2815.71 1145.5 1274.37c8.13,8.11 15.79,16.67 23.01,25.61l552.57 614.73 785.47 -650.05c7.7,-7.04 15.73,-13.69 24.1,-19.95l491.82 -407.02c135.06,-111.75 335.17,-92.85 446.91,42.21 49.03,59.25 72.9,131.01 72.86,202.35l0.38 0 0 11864.57 8004.57 0 1807.55 0 0 -11851.33c0,-175.52 142.28,-317.8 317.8,-317.8 80.41,0 153.83,29.88 209.8,79.11l1293.01 1058.93 1722.02 -1915.75 -2620.69 -2815.71 -2528.8 0 -2094.06 2042.02c-99.32,106.67 -262.73,133.88 -393.37,56.68l-553.66 -326.52 0 3396.99c0,175.52 -142.28,317.8 -317.8,317.8 -175.52,0 -317.8,-142.28 -317.8,-317.8l0 -3396.99 -553.66 326.52c-130.64,77.19 -294.05,49.99 -393.37,-56.68l-2094.06 -2042.02zm786.51 -1747.84c56.38,-88.65 155.49,-147.48 268.33,-147.48l4608.1 0c112.85,0 211.95,58.83 268.33,147.48l818.31 1112.24 2634.39 0 0 0.73c84.96,0.02 169.7,33.96 232.14,101.07l2904.83 3120.98c119.27,118.44 125.75,310.94 12.07,437.25l-2110.18 2347.56c-111.34,134.19 -310.3,153.58 -445.47,42.98l-1017.12 -832.99 0 891.67 1411.77 1320.38c9.34,7.63 18.36,15.86 26.97,24.7 122.04,125.46 119.25,326.11 -6.21,448.14l-1432.53 1387.3 0 7426.15c0,175.52 -142.28,317.8 -317.8,317.8l-1807.55 0 0 2191.53c0,175.52 -142.28,317.8 -317.8,317.8l-10447.72 0c-175.52,0 -317.8,-142.28 -317.8,-317.8l0 -9885.94 -973.74 889.64c-5.64,6 -11.54,11.82 -17.73,17.45 -129.57,117.92 -330.22,108.47 -448.14,-21.1l-2131.92 -2336.49 0.8 -0.73c-116.23,-127.64 -108.64,-325.39 17.82,-443.69l2889.9 -2702.84c30.95,-35.38 69.63,-63.85 113.39,-82.76l-897.79 -998.79 0.18 -0.16c-108.91,-120.73 -109.31,-306.84 3.54,-428.13l2898.82 -3114.53c58.28,-71.53 147.04,-117.22 246.49,-117.22l2514.99 0 818.31 -1112.24zm4042.48 488.12l-2940.18 0 1470.09 1309.57 1470.09 -1309.57zm-1152.29 1876.68l0 418.67 667.52 393.67 1826.71 -1781.33 -556.85 -756.86 -1937.38 1725.84zm-3129.83 -968.99l1826.71 1781.33 667.52 -393.67 0 -418.67 -1937.38 -1725.84 -556.85 756.86zm8413.39 6691.53l0 1432.36 752.4 -728.65 -752.4 -703.71zm-2760.95 10058.64l-8004.57 0c-175.52,0 -317.8,-142.28 -317.8,-317.8l0 -11447.44 -72.38 0 -943.5 780.84 -0.07 -0.09c-130.34,107.99 -323.88,94.79 -438.14,-32.19l-672.87 -748.56 -299.03 0 -2591.42 2423.69 1708.08 1871.97 1288.27 -1177.02c128.89,-117.92 328.98,-109.03 446.9,19.86 55.55,60.72 82.95,137.24 82.93,213.52l1.49 0 0 10286.96 9812.12 0 0 -1873.73z"/>
 </g>
</svg>
