<?xml version="1.0" encoding="UTF-8"?>
<!DOCTYPE svg PUBLIC "-//W3C//DTD SVG 1.1//EN" "http://www.w3.org/Graphics/SVG/1.1/DTD/svg11.dtd">
<!-- Creator: CorelDRAW 2018 (64-Bit) -->
<svg xmlns="http://www.w3.org/2000/svg" xml:space="preserve" width="203.138mm" height="208.572mm" version="1.1" style="shape-rendering:geometricPrecision; text-rendering:geometricPrecision; image-rendering:optimizeQuality; fill-rule:evenodd; clip-rule:evenodd"
viewBox="0 0 20887.16 21445.87"
 xmlns:xlink="http://www.w3.org/1999/xlink">
 <defs>
  <style type="text/css">
   <![CDATA[
    .fil0 {fill:#8FA6BB;fill-rule:nonzero}
   ]]>
  </style>
 </defs>
 <g id="Слой_x0020_1">
  <metadata id="CorelCorpID_0Corel-Layer"/>
  <path class="fil0" d="M3620.71 0l5223.38 0c180.3,0 326.46,146.16 326.46,326.46l0 1360.26 370.31 0c345.12,0 662.05,130.74 902.06,348.06 239.44,216.82 400.6,519.45 434.81,863.79l564.75 5682.73c178.21,-78.19 376.58,-120.61 549.76,-120.61l2064.99 0 0 -707.29c0,-180.3 146.16,-326.46 326.46,-326.46l3043.37 0c180.3,0 326.46,146.16 326.46,326.46l0 707.29 2071.58 0c253.45,0 498.06,98.12 678.18,261.23 180.29,163.25 297.1,391.04 299.33,653.38l84.49 9883.83c1.08,126.74 -12.17,249.27 -48.31,367.96 -39.21,128.86 -103.53,248.46 -202.26,357.49 -96.38,106.42 -206.65,187.19 -328.97,241.44 -123.35,54.71 -256.62,82.47 -397.95,82.47l-2156.08 0 0 707.29c0,180.3 -146.16,326.46 -326.46,326.46l-3043.37 0c-180.3,0 -326.46,-146.16 -326.46,-326.46l0 -707.29 -2095.08 0c-141.33,0 -274.61,-27.76 -397.95,-82.47 -122.31,-54.25 -232.59,-135.02 -328.97,-241.44 -73.61,-81.29 -127.99,-168.45 -167.2,-260.91l-1.86 0.01 -1074.03 0c-10.74,242.07 12.79,420.32 83.15,541.38 86.75,149.26 267.97,221.73 575.41,236.33 544.85,25.88 826.2,175.03 1108.45,324.64 295.15,156.45 591.43,313.5 1262.12,292.5 89.79,-2.81 164.89,67.7 167.69,157.49 2.81,89.79 -67.7,164.89 -157.49,167.69 -757.73,23.72 -1091.53,-153.21 -1424.07,-329.47 -250.6,-132.84 -500.43,-265.27 -972,-287.67 -428.46,-20.35 -693.22,-142.38 -841.95,-398.27 -101.88,-175.27 -138.05,-405.69 -127.12,-704.62l-495.79 0 0 1360.26c0,180.3 -146.16,326.46 -326.46,326.46l-5223.38 0c-180.3,0 -326.46,-146.16 -326.46,-326.46l0 -1360.26 -1950.09 0c-194.39,0 -377.02,-37.89 -545.35,-112.56 -167.31,-74.2 -318.23,-184.75 -450.21,-330.5 -132.12,-145.88 -227.11,-306.65 -284.13,-479.65 -57.22,-173.56 -76.55,-359.18 -57.17,-554.24l1525.3 -15348.17c34.22,-344.35 195.37,-646.97 434.82,-863.79 239.99,-217.33 556.93,-348.06 902.05,-348.06l424.78 0 0 -1360.26c0,-180.3 146.16,-326.46 326.46,-326.46zm16611.59 18745.43l-7833.78 -174.35c-10.53,78.71 -28.1,155.42 -52.66,229.9 -57.02,173 -152.01,333.76 -284.13,479.65 -101.95,112.58 -215.2,204.16 -338.56,274.21 30.96,32.65 65.71,57.53 103.73,74.39 39.4,17.48 84.71,26.35 135.26,26.35l2421.54 0 3043.37 0 2482.54 0c50.56,0 95.86,-8.87 135.26,-26.35 40.44,-17.93 77.21,-44.96 109.63,-80.77 30.05,-33.19 49.8,-70.08 61.97,-110.1 15.27,-50.16 20.81,-108.98 20.26,-174.12l-4.43 -518.81zm-7829.36 -499.57l7826.57 174.18 -9.18 -1074.56 -7924.4 -176.36 107.01 1076.74zm-139.41 -1402.79l7954.01 177.02 -7.92 -926.29 -8038.34 -178.9 92.24 928.17zm-124.64 -1254.21l8067.96 179.55 -9.1 -1064.22 -8164.84 -181.71 105.98 1066.38zm-138.39 -1392.42l8194.47 182.36 -10.71 -1252.81 -8308.51 -184.9 124.75 1255.35zm-157.15 -1581.4l8338.14 185.55 -8.85 -1035.1 -8432.36 -187.66 103.08 1037.21zm-135.48 -1363.25l8461.98 188.31 -9.98 -1168.01 -8568.3 -190.67 116.31 1170.38zm-128.94 7593.56l-10924.55 -392.32c4.67,49.7 14.65,97.73 29.87,143.91 29.52,89.58 78.47,172.57 146.39,247.56 68.03,75.13 145.42,131.94 230.87,169.83 84.41,37.44 179.05,56.44 282.66,56.44l2276.55 0 5223.38 0 2222.08 0c57.67,0 112.57,-5.89 164.47,-17.57 5.08,-1.34 10.22,-2.55 15.4,-3.65 35.76,-8.95 70.03,-20.7 102.78,-35.22 85.13,-37.75 162.25,-94.27 230.1,-168.98zm-10905.67 -717.24l11071.83 397.6c14.12,-68.35 17.56,-140.27 10.12,-215.21l-80.8 -813.03 -10899.73 -389.9 -101.42 1020.53zm133.66 -1344.98l10835.02 387.6 -109.86 -1105.45 -10612.43 -416.48 -112.73 1134.34zm144.98 -1458.75l10547.7 413.93 -113.13 -1138.27 -10305.64 -573.01 -128.93 1297.35zm161.16 -1621.74l10240.8 569.4 -105.89 -1065.52 -10035.53 -503.96 -99.39 1000.08zm131.62 -1324.41l9970.73 500.7 -108.04 -1087.13 -9755.73 -489.91 -106.97 1076.33zm139.2 -1400.67l9690.94 486.66 -104.47 -1051.2 -9463.32 -674.69 -123.15 1239.24zm155.4 -1563.76l9398.37 670.06 -124.43 -1252.04 -9150.83 -656.75 -123.11 1238.72zm155.35 -1563.24l9085.87 652.08 -102.87 -1035.21 -8881.57 -637.43 -101.42 1020.55zm133.67 -1345.07l8816.61 632.76 -120.52 -1212.69 -8591.96 -467.8 -104.13 1047.73zm136.36 -1372.06l8527.14 464.27 -92.79 -933.66 -8319.12 -690.14 -115.23 1159.53zm147.51 -1484.26l8254.04 684.75 -136.3 -1371.57c-17.72,-178.36 -100.41,-334.42 -223.11,-445.53 -122.16,-110.63 -285.74,-177.17 -465.93,-177.17l-696.78 0 -5223.38 0 -751.24 0c-180.18,0 -343.77,66.56 -465.92,177.17 -122.72,111.12 -205.41,267.17 -223.12,445.53l-68.25 686.82zm9446.98 6106.2l8597.93 191.33 -4.84 -566.29c-0.58,-68.19 -33.8,-130.01 -85.09,-176.45 -62.29,-56.41 -149.52,-90.34 -242.04,-90.34l-2398.04 0 -3043.37 0 -2391.45 0c-125.71,0 -275.73,42.28 -385.48,117.56 -48.38,33.18 -83.75,67.68 -90.07,96.91l42.47 427.29zm5541.45 10553.14l-2390.45 0 0 380.83 2390.45 0 0 -380.83zm0 -12228.65l-2390.45 0 0 380.83 2390.45 0 0 -380.83zm-8582.98 11643.84l-4570.46 0 0 1033.8 4570.46 0 0 -1033.8zm0 -19070.77l-4570.46 0 0 1033.8 4570.46 0 0 -1033.8z"/>
 </g>
</svg>
