<?xml version="1.0" encoding="UTF-8"?>
<!DOCTYPE svg PUBLIC "-//W3C//DTD SVG 1.1//EN" "http://www.w3.org/Graphics/SVG/1.1/DTD/svg11.dtd">
<!-- Creator: CorelDRAW 2018 (64-Bit) -->
<svg xmlns="http://www.w3.org/2000/svg" xml:space="preserve" width="188.119mm" height="209.022mm" version="1.1" style="shape-rendering:geometricPrecision; text-rendering:geometricPrecision; image-rendering:optimizeQuality; fill-rule:evenodd; clip-rule:evenodd"
viewBox="0 0 18811.92 20902.17"
 xmlns:xlink="http://www.w3.org/1999/xlink">
 <defs>
  <style type="text/css">
   <![CDATA[
    .fil0 {fill:#8FA6BB;fill-rule:nonzero}
   ]]>
  </style>
 </defs>
 <g id="Слой_x0020_1">
  <metadata id="CorelCorpID_0Corel-Layer"/>
  <path class="fil0" d="M9405.97 2090.25c2597.35,0 4948.84,1052.82 6650.98,2754.97 1702.16,1702.16 2754.97,4053.65 2754.97,6650.99 0,2597.35 -1052.82,4948.84 -2754.97,6650.98 -1702.14,1702.15 -4053.63,2754.97 -6650.98,2754.97 -2597.35,0 -4948.83,-1052.81 -6650.99,-2754.97 -1702.15,-1702.14 -2754.97,-4053.63 -2754.97,-6650.98 0,-2597.34 1052.82,-4948.85 2754.97,-6650.99 1702.14,-1702.15 4053.65,-2754.97 6650.99,-2754.97zm6202.02 3203.93c-1587.2,-1587.21 -3779.96,-2568.93 -6202.02,-2568.93 -2422.07,0 -4614.83,981.72 -6202.03,2568.93 -1587.21,1587.2 -2568.93,3779.96 -2568.93,6202.03 0,2422.06 981.72,4614.82 2568.93,6202.02 1587.21,1587.21 3779.97,2568.93 6202.03,2568.93 2422.06,0 4614.82,-981.72 6202.02,-2568.93 1587.21,-1587.2 2568.93,-3779.96 2568.93,-6202.02 0,-2422.06 -981.72,-4614.82 -2568.93,-6202.03zm-7585.49 -3706.67c0,175.35 -142.15,317.5 -317.5,317.5 -175.35,0 -317.5,-142.15 -317.5,-317.5l0 -820.01c0,-211.57 86.15,-403.51 225.08,-542.42 138.91,-138.93 330.85,-225.08 542.42,-225.08l2480.06 0c211.57,0 403.51,86.15 542.42,225.08 138.93,138.91 225.08,330.85 225.08,542.42l0 820.01c0,175.35 -142.15,317.5 -317.5,317.5 -175.35,0 -317.5,-142.15 -317.5,-317.5l0 -820.01c0,-36.28 -14.95,-69.37 -39.04,-93.46 -24.09,-24.09 -57.18,-39.04 -93.46,-39.04l-2480.06 0c-36.28,0 -69.37,14.95 -93.46,39.04 -24.09,24.09 -39.04,57.18 -39.04,93.46l0 820.01zm-6839.93 3589.66c-123.97,123.97 -324.99,123.97 -448.96,0 -123.97,-123.97 -123.97,-324.99 0,-448.96l1706.57 -1706.56c123.97,-123.97 324.99,-123.97 448.96,0 123.97,123.97 123.97,324.99 0,448.96l-1706.57 1706.56zm16860.57 -448.96c123.97,123.97 123.97,324.99 0,448.96 -123.97,123.97 -324.99,123.97 -448.96,0l-1706.57 -1706.56c-123.97,-123.97 -123.97,-324.99 0,-448.96 123.97,-123.97 324.99,-123.97 448.96,0l1706.57 1706.56zm-8962.3 -1071.97c0,-175.35 142.15,-317.5 317.5,-317.5 175.35,0 317.5,142.15 317.5,317.5l0 1693.34c0,175.35 -142.15,317.5 -317.5,317.5 -175.35,0 -317.5,-142.15 -317.5,-317.5l0 -1693.34zm8165.09 7514.83c175.35,0 317.5,142.15 317.5,317.5 0,175.35 -142.15,317.5 -317.5,317.5l-1693.34 0c-175.35,0 -317.5,-142.15 -317.5,-317.5 0,-175.35 142.15,-317.5 317.5,-317.5l1693.34 0zm-7514.83 8165.09c0,175.35 -142.15,317.5 -317.5,317.5 -175.35,0 -317.5,-142.15 -317.5,-317.5l0 -1693.34c0,-175.35 142.15,-317.5 317.5,-317.5 175.35,0 317.5,142.15 317.5,317.5l0 1693.34zm-8165.09 -7514.83c-175.35,0 -317.5,-142.15 -317.5,-317.5 0,-175.35 142.15,-317.5 317.5,-317.5l1693.34 0c175.35,0 317.5,142.15 317.5,317.5 0,175.35 -142.15,317.5 -317.5,317.5l-1693.34 0zm12057.75 6291.98c87.67,151.37 36.03,345.17 -115.34,432.84 -151.37,87.67 -345.17,36.03 -432.84,-115.34l-425.18 -732.16c-87.67,-151.37 -36.03,-345.17 115.34,-432.84 151.37,-87.67 345.17,-36.03 432.84,115.34l425.18 732.16zm2780.28 -3067.72c152.74,85.62 207.16,278.86 121.54,431.6 -85.62,152.74 -278.86,207.16 -431.6,121.54l-738.6 -413.9c-152.74,-85.62 -207.16,-278.86 -121.54,-431.6 85.62,-152.74 278.86,-207.16 431.6,-121.54l738.6 413.9zm-364.55 -7741.01c151.37,-86.99 344.61,-34.79 431.6,116.58 86.99,151.37 34.79,344.61 -116.58,431.6l-733.8 422.35c-151.37,86.99 -344.61,34.79 -431.6,-116.58 -86.99,-151.37 -34.79,-344.61 116.58,-431.6l733.8 -422.35zm-3036.45 -2781.51c86.3,-152.06 279.54,-205.36 431.6,-119.06 152.06,86.3 205.36,279.54 119.06,431.6l-418.91 735.77c-86.3,152.06 -279.54,205.36 -431.6,119.06 -152.06,-86.3 -205.36,-279.54 -119.06,-431.6l418.91 -735.77zm-7760.16 321.3c-86.3,-152.06 -33,-345.3 119.06,-431.6 152.06,-86.3 345.3,-33 431.6,119.06l419.14 735.64c86.3,152.06 33,345.3 -119.06,431.6 -152.06,86.3 -345.3,33 -431.6,-119.06l-419.14 -735.64zm-2720.87 2885.73c-150,-90.41 -198.31,-285.32 -107.9,-435.32 90.41,-150 285.32,-198.31 435.32,-107.9l725.32 436.76c150,90.41 198.31,285.32 107.9,435.32 -90.41,150 -285.32,198.31 -435.32,107.9l-725.32 -436.76zm195.65 7870.28c-152.74,84.93 -345.43,29.96 -430.36,-122.78 -84.93,-152.74 -29.96,-345.43 122.78,-430.36l739.32 -412.64c152.74,-84.93 345.43,-29.96 430.36,122.78 84.93,152.74 29.96,345.43 -122.78,430.36l-739.32 412.64zm2983.8 2813.2c-89.04,150.69 -283.39,200.66 -434.08,111.62 -150.69,-89.04 -200.66,-283.39 -111.62,-434.08l430.25 -729.21c89.04,-150.69 283.39,-200.66 434.08,-111.62 150.69,89.04 200.66,283.39 111.62,434.08l-430.25 729.21zm3704.52 -8444.37c421.62,0 803.37,170.94 1079.72,447.27 276.33,276.35 447.27,658.1 447.27,1079.72 0,421.62 -170.94,803.37 -447.27,1079.72 -276.35,276.33 -658.1,447.27 -1079.72,447.27 -421.62,0 -803.37,-170.94 -1079.72,-447.27 -276.33,-276.35 -447.27,-658.1 -447.27,-1079.72 0,-421.62 170.94,-803.37 447.27,-1079.72 276.35,-276.33 658.1,-447.27 1079.72,-447.27zm630.76 896.23c-161.4,-161.39 -384.42,-261.23 -630.76,-261.23 -246.34,0 -469.36,99.84 -630.76,261.23 -161.39,161.4 -261.23,384.42 -261.23,630.76 0,246.34 99.84,469.36 261.23,630.76 161.4,161.39 384.42,261.23 630.76,261.23 246.34,0 469.36,-99.84 630.76,-261.23 161.39,-161.4 261.23,-384.42 261.23,-630.76 0,-246.34 -99.84,-469.36 -261.23,-630.76zm-1946.88 2498.19c-119.86,127.4 -320.32,133.5 -447.72,13.64 -127.4,-119.86 -133.5,-320.32 -13.64,-447.72l719.76 -767.96c119.86,-127.4 320.32,-133.5 447.72,-13.64 127.4,119.86 133.5,320.32 13.64,447.72l-719.76 767.96zm2373.84 -2532.82c-119.86,127.4 -320.32,133.5 -447.72,13.64 -127.4,-119.86 -133.5,-320.32 -13.64,-447.72l4355.77 -4647.47c119.86,-127.4 320.32,-133.5 447.72,-13.64 127.4,119.86 133.5,320.32 13.64,447.72l-4355.77 4647.47z"/>
 </g>
</svg>
