<?xml version="1.0" encoding="utf-8"?>
<!-- Generator: Adobe Illustrator 20.0.0, SVG Export Plug-In . SVG Version: 6.00 Build 0)  -->
<svg version="1.1" id="Слой_1" xmlns="http://www.w3.org/2000/svg" xmlns:xlink="http://www.w3.org/1999/xlink" x="0px" y="0px" width="180" height="180"
	 viewBox="0 0 72 72" style="enable-background:new 0 0 72 72;" xml:space="preserve">
<style type="text/css">
	.st0{fill:#56739F;}
</style>
<path class="st0" d="M14.1,40.6c0.3-0.2,0.4-0.5,0.4-0.7c0,0,0.1-3.5,1.3-5.7l14.9,16.1l-3.6,19c-0.1,0.3,0,0.6,0.2,0.7
	c0.2,0.2,0.4,0.4,0.7,0.4l15.3,1.2h0.1c0.5,0,0.8-0.3,0.9-0.7c1.5-5.8,3.7-12.4,4.8-13.7c1,1.3,3.3,7.9,4.9,13.7
	c0.1,0.5,0.6,0.7,0.9,0.7l15.3-1.2c0.3,0,0.5-0.2,0.7-0.4c0.2-0.2,0.2-0.5,0.2-0.7L65,38c-0.1-0.5-0.5-0.7-0.9-0.7h-14l3.3-3.4
	c0.2-0.2,0.3-0.5,0.3-0.7s-0.1-0.5-0.3-0.7L34.6,15.4c2.2-1.2,5.7-1.3,5.7-1.3c0.3,0,0.6-0.2,0.7-0.4c0.2-0.3,0.2-0.6,0.1-0.8
	L36.7,1.1c-0.1-0.4-0.5-0.7-0.8-0.7c-11.7,0.4-18.4,5.8-18.7,6c-0.1,0.1-0.1,0.1-0.2,0.2c0,0-0.1,0-0.1,0.1c-0.4,0.4-0.4,0.9,0,1.3
	c2.3,2.3,2.3,6.3,0,8.6c-1.1,1.1-2.7,1.8-4.3,1.8s-3.2-0.7-4.3-1.8c0,0-0.1,0-0.1-0.1c-0.1,0-0.1-0.1-0.2-0.1s-0.1,0-0.2,0
	c-0.1,0-0.1,0-0.2,0s-0.1,0-0.2,0c-0.1,0-0.1,0-0.2,0.1c-0.1,0-0.1,0.1-0.2,0.1c0,0-0.1,0-0.1,0.1c-0.2,0.3-5.6,7-6,18.7
	c0,0.4,0.2,0.7,0.6,0.9l11.8,4.4C13.5,40.9,13.8,40.8,14.1,40.6z M55.5,69.6c-3.9-14.5-5.7-14.5-6.4-14.5H49c-0.7,0-2.5,0-6.4,14.5
	l-13.6-1l5-25.7h10.7c-0.7,1.1-1.4,2.8-0.8,4.9c0.6,2,0.2,3.8-0.2,4.8h-0.1c-1.1,0-2,0.9-2,2c0,1,0.9,2,2,2s2-0.9,2-2
	c0-0.4-0.1-0.7-0.3-1c0.4-1,1.1-3.5,0.3-6.3c-0.7-2.2,0.9-3.8,1.5-4.3h3.6c0.6,0.5,2.2,2.2,1.5,4.3c-0.7,2.8-0.1,5.2,0.3,6.3
	c-0.2,0.4-0.4,0.7-0.4,1.1c0,1.1,0.9,2,2,2c1,0,2-0.9,2-2c0-1.1-0.8-2-2-2c-0.3-0.8-0.8-2.8-0.2-4.9c0.6-2.1-0.1-3.7-0.8-4.9h10.8
	l5,25.7L55.5,69.6z M43.6,54.2C43.7,54.2,43.7,54.3,43.6,54.2c0.1,0.3-0.2,0.3-0.2,0.1C43.4,54.2,43.5,54.2,43.6,54.2z M54.5,54.5
	c0,0.2-0.3,0.2-0.3,0c0-0.1,0.1-0.1,0.1-0.1S54.5,54.4,54.5,54.5z M63.7,40.9H34.4l0.4-1.8h13c0,0,0,0,0.1,0c0,0,0,0,0.1,0h15.5
	L63.7,40.9z M2.8,34.8c0.5-8.5,3.6-14.1,5-16.1c1.4,1,3.1,1.6,4.8,1.6c2.2,0,4.1-0.8,5.6-2.3c2.9-2.9,3.1-7.4,0.7-10.5
	c1.7-1.2,7.5-4.7,16.4-5.1l3.7,10c-1.7,0.2-4.7,0.7-6.5,2.3c-0.2,0.2-0.3,0.5-0.3,0.7c0,0.3,0.1,0.6,0.3,0.7l19,17.2l-3.9,3.9H34
	c-0.5,0-0.8,0.3-0.9,0.7l-1.9,10L16.4,32c-0.2-0.2-0.4-0.3-0.7-0.3c-0.3,0-0.6,0.1-0.7,0.3c-1.6,1.8-2.1,4.8-2.3,6.5L2.8,34.8z"/>
<path class="st0" d="M35.9,0L35.9,0c0.6,0,1.1,0.4,1.3,1l4.4,11.8l0,0c0.1,0.4,0.1,0.8-0.1,1.2l0,0l0,0c-0.2,0.2-0.6,0.5-1.1,0.5
	l0,0l0,0c0,0-0.1,0-0.1,0c-0.1,0-0.2,0-0.4,0c-0.4,0-0.8,0.1-1.4,0.2c-0.9,0.1-2,0.4-2.9,0.8l18.3,16.6l0,0c0.3,0.3,0.4,0.7,0.4,1
	c0,0.3-0.1,0.7-0.4,1c0,0,0,0,0,0l-2.5,2.6h12.9c0.7,0,1.3,0.4,1.4,1.1l0,0l6,31.3v0.1c0,0.1,0,0.3,0,0.5c0,0.2-0.1,0.4-0.3,0.6
	c0,0,0,0,0,0c-0.2,0.2-0.5,0.5-0.9,0.5L54.9,72c-0.6,0.1-1.3-0.3-1.5-1c-0.8-2.9-1.7-6-2.6-8.5c-0.4-1.3-0.9-2.4-1.2-3.3
	c-0.2-0.5-0.4-0.9-0.5-1.2c-0.2,0.3-0.3,0.7-0.5,1.2c-0.4,0.9-0.8,2-1.2,3.3c-0.9,2.5-1.8,5.6-2.5,8.5c-0.2,0.6-0.7,1-1.4,1h-0.1
	l-15.3-1.2c-0.5,0-0.8-0.3-0.9-0.5c0,0,0,0,0,0c-0.3-0.3-0.4-0.7-0.3-1.2l3.5-18.7L15.9,34.9c-0.4,0.9-0.6,2-0.8,2.9
	c-0.1,0.6-0.1,1-0.2,1.4c0,0.2,0,0.3,0,0.4c0,0,0,0.1,0,0.1l0,0l0,0c0,0.4-0.1,0.8-0.6,1.1c-0.2,0.1-0.4,0.2-0.5,0.3
	c-0.2,0-0.4,0.1-0.6,0L1.4,36.8l0,0c-0.6-0.3-0.8-0.8-0.8-1.4v0l0,0c0.2-5.9,1.7-10.6,3.1-13.8c0.7-1.6,1.4-2.9,2-3.7
	c0.3-0.4,0.5-0.8,0.7-1c0.1-0.1,0.2-0.2,0.2-0.3l0-0.1c0,0,0-0.1,0.1-0.1c0.1-0.1,0.1-0.2,0.2-0.2c0,0,0.1,0,0.1,0c0,0,0,0,0.1,0
	c0,0,0,0,0.1,0c0,0,0.1-0.1,0.1-0.1C7.3,16,7.4,16,7.4,16c0,0,0,0,0,0H8c0.1,0,0.1,0,0.2,0c0.1,0,0.1,0,0.1,0.1c0,0,0,0,0,0h0.3v0.3
	c1,1,2.5,1.6,3.9,1.6c1.5,0,2.9-0.6,4-1.6c2.2-2.2,2.2-5.8,0-7.9C16,7.8,16,7,16.5,6.5c0,0,0-0.1,0-0.1c0.1-0.1,0.1-0.2,0.2-0.2
	c0,0,0,0,0,0l0.1-0.1l0,0c0,0,0,0,0,0c0,0,0,0,0,0L17,6c0.1-0.1,0.2-0.1,0.3-0.2c0.2-0.2,0.6-0.4,1-0.7c0.9-0.6,2.1-1.3,3.7-2
	C25.3,1.7,29.9,0.2,35.9,0L35.9,0z M7.1,16.4c0,0.1,0,0.2,0,0.3c0,0,0,0.1,0,0.1 M7.1,16.4l0,0.3L7.1,16.4z M14.5,39.8
	c-0.5,0-0.5,0-0.5,0v0l0,0l0,0l0,0c0,0,0-0.1,0-0.1c0-0.1,0-0.3,0-0.4c0-0.4,0.1-0.9,0.2-1.5c0.2-1.2,0.5-2.7,1.2-3.8l0.3-0.6
	l15.5,16.7l-3.6,19.2l0,0c0,0.1,0,0.2,0.1,0.3c0.1,0.1,0.2,0.2,0.2,0.2c0,0,0.1,0,0.1,0h0L43.3,71h0.1c0.3,0,0.4-0.2,0.5-0.3l0,0
	c0.8-2.9,1.7-6,2.6-8.6c0.4-1.3,0.9-2.4,1.3-3.3c0.4-0.9,0.7-1.6,1-2l0.4-0.5l0.4,0.5c0.3,0.4,0.7,1.1,1,2c0.4,0.9,0.8,2.1,1.3,3.3
	c0.9,2.6,1.9,5.7,2.7,8.6l0,0l0,0c0,0.1,0.1,0.2,0.2,0.2c0.1,0.1,0.2,0.1,0.2,0.1l0,0l15.4-1.2h0c0,0,0.1,0,0.1,0
	c0.1,0,0.1-0.1,0.2-0.2c0,0,0,0,0-0.1c0-0.1,0-0.2,0-0.3l-6-31.2c0,0,0,0,0,0c0-0.2-0.2-0.4-0.5-0.4H49l4-4.2c0,0,0.1-0.1,0.1-0.2
	c0-0.1,0-0.1,0-0.2c0,0,0-0.1,0-0.2c0-0.1-0.1-0.1-0.1-0.2L33.7,15.3l0.6-0.3c1.2-0.6,2.7-1,3.8-1.2c0.6-0.1,1.1-0.1,1.5-0.2
	c0.2,0,0.3,0,0.4,0c0.1,0,0.1,0,0.1,0l0,0l0,0h0l0,0c0,0,0,0,0,0.5l0-0.5l0,0c0.1,0,0.2-0.1,0.4-0.2c0.1-0.1,0.1-0.2,0-0.4L36.3,1.3
	l0,0c0-0.2-0.2-0.3-0.4-0.3c-11,0.4-17.5,5.2-18.4,5.8c0,0,0,0,0,0l-0.3,0.3c-0.2,0.2-0.2,0.5,0,0.6c2.5,2.5,2.5,6.7,0,9.3
	c-1.2,1.2-2.9,1.9-4.6,1.9c-1.7,0-3.3-0.7-4.6-1.8c0,0,0,0,0,0C8,17,7.9,17,7.9,16.9H7.5L7.4,17H7.4c0,0,0,0,0,0c0,0,0,0,0,0
	c0,0,0,0,0,0c-0.6,0.9-5.5,7.4-5.8,18.4c0,0.2,0.1,0.4,0.3,0.5l11.8,4.4c0,0,0,0,0,0c0.1,0,0.2-0.1,0.3-0.1c0.1-0.1,0.2-0.2,0.2-0.4
	l0,0L14.5,39.8z M35.4,1.9l4.1,10.9l-0.6,0.1c-0.8,0.1-2,0.3-3.1,0.6c-1.2,0.4-2.3,0.9-3.2,1.6c0,0-0.1,0.1-0.1,0.2
	c0,0.1,0,0.1,0,0.2c0,0.2,0.1,0.3,0.1,0.4L52,33.3l-4.4,4.4H34c-0.3,0-0.4,0.1-0.5,0.4c0,0,0,0,0,0l-2,10.9L16.1,32.3
	c-0.1-0.1-0.1-0.1-0.1-0.1c0,0-0.1,0-0.3,0c-0.1,0-0.2,0-0.2,0c0,0,0,0,0,0l0,0l0,0c-0.7,0.8-1.2,1.9-1.6,3.1
	c-0.3,1.2-0.5,2.3-0.7,3.2L13,39.2L2.3,35.1l0-0.3c0.5-8.6,3.7-14.3,5-16.3L7.6,18L8,18.3c1.3,1,2.9,1.5,4.5,1.5
	c2,0,3.9-0.8,5.3-2.2c2.7-2.7,2.9-6.9,0.6-9.9l-0.3-0.4l0.4-0.3c1.7-1.3,7.6-4.8,16.6-5.2L35.4,1.9z M19.4,7.6c2.3,3.2,2,7.7-1,10.7
	c-1.6,1.6-3.7,2.5-5.9,2.5c-1.6,0-3.2-0.5-4.6-1.4c-1.4,2.2-4.1,7.4-4.6,15.1l9.1,3.4c0.1-0.8,0.3-1.8,0.6-2.8
	c0.4-1.2,0.9-2.5,1.7-3.4c0.1-0.2,0.3-0.3,0.5-0.4c0.2-0.1,0.4-0.1,0.6-0.1c0.2,0,0.4,0,0.6,0.1c0.2,0.1,0.3,0.2,0.5,0.3l0,0
	L30.9,47l1.7-9.1c0.1-0.7,0.7-1.1,1.4-1.1h13.2l3.4-3.4L32,16.4l0,0c-0.3-0.3-0.4-0.7-0.4-1.1c0-0.3,0.1-0.7,0.4-1l0,0l0,0
	c1-0.9,2.3-1.4,3.5-1.8c1-0.3,1.9-0.5,2.7-0.6l-3.4-9.1C26.8,3.3,21.4,6.2,19.4,7.6z M34.4,38.7h29.5l0.4,2.7H33.8L34.4,38.7z
	 M35.1,39.6l-0.2,0.8h28.2L63,39.6H35.1z M33.7,42.3h11.9l-0.5,0.7c-0.7,1-1.3,2.6-0.8,4.5c0.6,2.1,0.2,4.1-0.2,5.1L44,52.9h-0.4
	c-0.8,0-1.5,0.7-1.5,1.5c0,0.8,0.7,1.5,1.5,1.5c0.8,0,1.5-0.7,1.5-1.5c0-0.3-0.1-0.5-0.2-0.8l-0.1-0.2l0.1-0.2c0.4-1,1.1-3.3,0.3-6
	c-0.4-1.2-0.1-2.3,0.3-3.1c0.4-0.8,1-1.4,1.3-1.7l0.1-0.1h4l0.1,0.1c0.3,0.3,0.9,0.8,1.3,1.7c0.4,0.8,0.7,1.9,0.3,3.1
	c-0.7,2.7-0.1,5,0.3,6l0.1,0.2l-0.1,0.2c-0.2,0.4-0.3,0.7-0.3,0.9c0,0.8,0.7,1.5,1.5,1.5c0.8,0,1.5-0.7,1.5-1.5
	c0-0.9-0.6-1.5-1.5-1.5h-0.3l-0.1-0.3c-0.3-0.9-0.9-2.9-0.2-5.1c0.5-1.9-0.1-3.4-0.8-4.5l-0.5-0.7h12l5.1,26.6L55.1,70L55,69.7
	c-2-7.2-3.4-10.8-4.4-12.6c-0.5-0.9-0.9-1.3-1.1-1.4c-0.1-0.1-0.2-0.1-0.3-0.1c-0.1,0-0.1,0-0.2,0H49c-0.1,0-0.2,0-0.5,0.1
	c-0.2,0.2-0.6,0.6-1.1,1.4c-1,1.8-2.4,5.3-4.3,12.6L43,70l-14.5-1.1L33.7,42.3z M34.5,43.3l-4.8,24.8l12.6,1
	c1.9-7,3.3-10.6,4.3-12.4c0.5-0.9,1-1.5,1.4-1.7c0.4-0.3,0.8-0.3,1-0.3h0.1c0.1,0,0.2,0,0.4,0c0.2,0,0.4,0.1,0.6,0.3
	c0.4,0.3,0.8,0.8,1.4,1.7c1,1.8,2.4,5.4,4.3,12.4l12.4-1l-4.8-24.8h-9.5c0.6,1.2,1,2.7,0.5,4.5l0,0l0,0c-0.5,1.7-0.2,3.4,0.1,4.3
	c1.2,0.2,2.1,1.1,2.1,2.4c0,1.3-1.1,2.4-2.4,2.4c-1.3,0-2.4-1-2.4-2.4c0-0.4,0.2-0.8,0.3-1.2c-0.4-1.2-1-3.6-0.2-6.4l0,0l0,0
	c0.3-0.9,0.1-1.8-0.3-2.4c-0.3-0.6-0.7-1-1-1.3h-3.3c-0.3,0.2-0.7,0.7-1,1.3c-0.3,0.7-0.5,1.5-0.3,2.4l0,0c0.8,2.8,0.2,5.2-0.2,6.4
	C46,53.7,46,54,46,54.4c0,1.3-1.1,2.4-2.4,2.4c-1.3,0-2.4-1.1-2.4-2.4c0-1.2,0.9-2.3,2.2-2.4c0.3-0.9,0.5-2.5,0.1-4.2l0,0
	c-0.5-1.8-0.1-3.4,0.5-4.5H34.5z M43.8,54.5c0.1-0.1,0.1-0.2,0.1-0.2h0.3c0,0.2-0.1,0.3-0.2,0.5c-0.1,0.1-0.3,0.2-0.4,0.2
	c-0.1,0-0.3,0-0.4-0.2C43,54.7,43,54.5,43,54.3c0-0.1,0-0.2,0.1-0.3c0.1-0.1,0.2-0.2,0.3-0.2c0.1,0,0.2,0,0.3,0c0,0,0,0,0,0
	c0.1,0,0.2,0,0.3,0.1c0.1,0.1,0.2,0.1,0.2,0.2c0,0.1,0,0.1,0.1,0.2c0,0,0,0,0,0.1c0,0,0,0,0,0c0,0,0,0,0,0l0,0l0,0v0v0
	c0,0,0,0-0.3,0c0-0.1,0-0.2-0.1-0.2c-0.1,0-0.1-0.1-0.2-0.1c0,0,0,0,0,0c-0.1,0-0.1,0-0.2,0.1c-0.1,0.1-0.1,0.2-0.1,0.2h0.4
	c-0.4,0-0.4,0-0.4,0v0l0,0v0l0,0c0,0,0,0,0,0c0,0,0,0,0,0c0,0,0,0,0,0c0,0,0,0.1,0,0.1c0,0,0.1,0.1,0.1,0.1c0.1,0,0.1,0.1,0.2,0.1
	c0,0,0,0,0,0c0,0,0,0,0,0c0,0,0,0,0,0c0,0,0,0,0,0C43.7,54.7,43.8,54.6,43.8,54.5z M54.6,54.7c0-0.1,0.1-0.1,0.1-0.2
	c0-0.1,0-0.2-0.1-0.2c-0.1-0.1-0.1-0.1-0.2-0.1c0,0,0,0,0,0c0-0.2,0-0.2,0-0.2h0h0l0,0l0,0c0,0,0,0,0,0c0,0,0.1,0,0.1,0
	c0,0,0.1,0,0.2,0.1c0.1,0.1,0.2,0.2,0.2,0.4c0,0.2-0.1,0.3-0.2,0.5c-0.1,0.1-0.3,0.2-0.4,0.2c-0.1,0-0.3,0-0.4-0.2
	c-0.1-0.1-0.2-0.3-0.2-0.5c0-0.1,0-0.2,0.1-0.3C53.9,54.1,54,54,54,54c0.1,0,0.1,0,0.2-0.1c0,0,0,0,0.1,0c0,0,0,0,0,0l0,0l0,0h0h0
	c0,0,0,0,0,0.2c-0.1,0-0.1,0-0.2,0.1C54,54.3,54,54.4,54,54.5c0,0.1,0,0.1,0.1,0.2c0,0.1,0.1,0.1,0.1,0.1c0.1,0,0.1,0.1,0.1,0.1
	 M54.6,54.7c0,0.1-0.1,0.1-0.1,0.1L54.6,54.7z M54.4,54.8c0,0-0.1,0-0.1,0L54.4,54.8z M54.3,54.9C54.3,54.9,54.3,54.9,54.3,54.9
	L54.3,54.9z M54.3,54.9C54.3,54.9,54.3,54.9,54.3,54.9L54.3,54.9z M54.3,54.9C54.3,54.9,54.3,54.9,54.3,54.9L54.3,54.9z M54.3,54.9
	L54.3,54.9L54.3,54.9z M54.3,54.9L54.3,54.9L54.3,54.9z M54.3,54.9L54.3,54.9L54.3,54.9z M54.3,54.9L54.3,54.9L54.3,54.9z
	 M54.3,54.9c0,0,0,0,0-0.4L54.3,54.9z M54.3,54.9c0,0,0,0,0-0.4L54.3,54.9z M54.3,54.9L54.3,54.9L54.3,54.9z M54.3,54.9L54.3,54.9
	L54.3,54.9z M54.3,54.9L54.3,54.9L54.3,54.9z M54.3,54.9L54.3,54.9L54.3,54.9z M54.3,54.9L54.3,54.9L54.3,54.9z M54.3,54.9
	C54.3,54.9,54.3,54.9,54.3,54.9L54.3,54.9z M54.3,53.9l0,0.2L54.3,53.9L54.3,53.9z"/>
</svg>
