<?xml version="1.0" encoding="UTF-8"?>
<!DOCTYPE svg PUBLIC "-//W3C//DTD SVG 1.1//EN" "http://www.w3.org/Graphics/SVG/1.1/DTD/svg11.dtd">
<!-- Creator: CorelDRAW 2018 (64-Bit) -->
<svg xmlns="http://www.w3.org/2000/svg" xml:space="preserve" width="214.541mm" height="214.541mm" version="1.1" style="shape-rendering:geometricPrecision; text-rendering:geometricPrecision; image-rendering:optimizeQuality; fill-rule:evenodd; clip-rule:evenodd"
viewBox="0 0 21454.08 21454.08"
 xmlns:xlink="http://www.w3.org/1999/xlink">
 <defs>
  <style type="text/css">
   <![CDATA[
    .fil0 {fill:#8FA6BB;fill-rule:nonzero}
   ]]>
  </style>
 </defs>
 <g id="Слой_x0020_1">
  <metadata id="CorelCorpID_0Corel-Layer"/>
  <path class="fil0" d="M10727.05 2670.45c2224.74,0 4238.89,901.79 5696.84,2359.75 1457.96,1457.96 2359.75,3472.12 2359.75,5696.85 0,2224.74 -901.79,4238.89 -2359.75,5696.84 -1457.96,1457.96 -3472.11,2359.75 -5696.84,2359.75 -2224.74,0 -4238.9,-901.79 -5696.85,-2359.75 -1457.96,-1457.96 -2359.75,-3472.11 -2359.75,-5696.84 0,-2224.74 901.79,-4238.9 2359.75,-5696.85 1457.96,-1457.96 3472.12,-2359.75 5696.85,-2359.75zm5247.89 2808.71c-1343.02,-1343.02 -3198.44,-2173.71 -5247.89,-2173.71 -2049.46,0 -3904.88,830.69 -5247.9,2173.71 -1343.02,1343.02 -2173.71,3198.44 -2173.71,5247.9 0,2049.45 830.69,3904.87 2173.71,5247.89 1343.02,1343.02 3198.44,2173.71 5247.9,2173.71 2049.45,0 3904.87,-830.69 5247.89,-2173.71 1343.02,-1343.02 2173.71,-3198.44 2173.71,-5247.89 0,-2049.46 -830.69,-3904.88 -2173.71,-5247.9zm-12775.35 11977.62c0,275.88 112.65,526.47 294.34,708.16 181.69,181.69 432.28,294.34 708.16,294.34 341.21,0 523.16,-2.7 682.96,-5.06 734.2,-10.86 1117.25,-16.52 1461.32,172.5 375.16,206.11 587.9,577.85 1032.66,1355 127.58,222.93 122.36,215.95 192.51,337.49l0.54 -0.31c138,239.03 361.07,399.83 609.56,466.41 248.73,66.64 522.23,39.11 760.75,-98.6 238.89,-137.92 424.79,-248.96 587.83,-346.33 630.14,-376.34 958.89,-572.7 1353.49,-581.07 427.48,-9.07 797.26,206.28 1570.28,656.51 104.25,60.71 216.39,126.03 337.46,195.93 238.52,137.71 512.02,165.24 760.76,98.6 249,-66.72 472.12,-227.12 609.55,-465.17l0.55 -0.92 -0.55 -0.32c138.93,-240.64 243.59,-428.27 335.41,-592.88 357.48,-640.88 543.99,-975.24 881.48,-1179.76 365.56,-221.53 793.43,-219.91 1687.91,-216.51 36.82,0.14 -72,-0.29 390.23,-0.29 275.88,0 526.47,-112.65 708.16,-294.34 181.69,-181.69 294.34,-432.28 294.34,-708.16 0,-341.21 -2.7,-523.16 -5.06,-682.96 -10.86,-734.2 -16.52,-1117.25 172.5,-1461.32 206.11,-375.16 577.85,-587.9 1355,-1032.66 222.93,-127.58 215.95,-122.36 337.49,-192.51l-0.31 -0.54c239.03,-138 399.83,-361.07 466.41,-609.56 66.64,-248.73 39.11,-522.23 -98.6,-760.75 -137.92,-238.89 -248.96,-424.79 -346.33,-587.83 -376.34,-630.14 -572.7,-958.89 -581.07,-1353.49 -9.07,-427.48 206.28,-797.26 656.51,-1570.28 60.71,-104.25 126.03,-216.39 195.93,-337.46 137.71,-238.52 165.24,-512.02 98.6,-760.76 -66.72,-249 -227.12,-472.12 -465.17,-609.55l-0.92 -0.55 -0.32 0.55c-240.64,-138.93 -428.27,-243.59 -592.88,-335.41 -640.88,-357.48 -975.24,-543.99 -1179.76,-881.48 -221.53,-365.56 -219.91,-793.43 -216.51,-1687.91 0.14,-36.82 -0.29,72 -0.29,-390.23 0,-275.88 -112.65,-526.47 -294.34,-708.16 -181.69,-181.69 -432.28,-294.34 -708.16,-294.34 -341.21,0 -523.16,2.7 -682.96,5.06 -734.2,10.86 -1117.25,16.52 -1461.32,-172.5 -375.16,-206.11 -587.9,-577.85 -1032.66,-1355 -127.58,-222.93 -122.36,-215.95 -192.51,-337.49l-0.54 0.31c-138,-239.03 -361.07,-399.83 -609.56,-466.41 -248.73,-66.64 -522.23,-39.11 -760.75,98.6 -238.89,137.92 -424.79,248.96 -587.83,346.33 -630.14,376.34 -958.89,572.7 -1353.49,581.07 -427.48,9.07 -797.26,-206.28 -1570.28,-656.51 -104.25,-60.71 -216.39,-126.03 -337.46,-195.93 -238.52,-137.71 -512.02,-165.24 -760.76,-98.6 -249,66.72 -472.12,227.12 -609.55,465.17l-0.55 0.92 0.55 0.32c-138.93,240.64 -243.59,428.27 -335.41,592.88 -357.48,640.88 -543.99,975.24 -881.48,1179.76 -365.56,221.53 -793.43,219.91 -1687.91,216.51 -36.82,-0.14 72,0.29 -390.23,0.29 -275.88,0 -526.47,112.65 -708.16,294.34 -181.69,181.69 -294.34,432.28 -294.34,708.16 0,341.22 2.7,523.17 5.06,682.98 10.86,734.19 16.52,1117.24 -172.5,1461.31 -206.09,375.14 -577.85,587.9 -1355.01,1032.66l-337.17 193.04c-239.03,138 -399.83,361.07 -466.41,609.56 -66.64,248.73 -39.11,522.23 98.6,760.75 137.92,238.89 248.96,424.79 346.33,587.83 376.34,630.14 572.7,958.89 581.07,1353.49 9.07,427.48 -206.28,797.26 -656.51,1570.28 -60.71,104.25 -126.03,216.39 -195.93,337.46 -137.71,238.52 -165.24,512.02 -98.6,760.76 66.72,249 227.12,472.12 465.17,609.55l0.92 0.55 0.32 -0.55c240.64,138.93 428.27,243.59 592.88,335.41 640.88,357.48 975.24,543.99 1179.76,881.48 221.53,365.56 219.91,793.43 216.51,1687.91 -0.14,36.82 0.29,-72 0.29,390.23zm-154.62 1157.12c-296.53,-296.53 -480.38,-705.96 -480.38,-1157.12 0,-182.6 1.13,-112.08 2.19,-390.23 2.95,-776.19 4.36,-1147.48 -124.73,-1360.49 -116.94,-192.98 -401.4,-351.65 -946.6,-655.76 -182.94,-102.05 -391.63,-218.45 -602.8,-340.37l0.31 -0.54c-391.03,-226.09 -653.66,-589.53 -761.9,-993.47 -108.39,-404.55 -62.69,-850.9 163.1,-1241.98 69.9,-121.07 135.22,-233.21 195.93,-337.46 390.61,-670.66 577.45,-991.48 572.17,-1240.38 -4.78,-225.55 -171.75,-505.12 -491.77,-1040.95 -106.69,-178.64 -228.36,-382.35 -351.29,-595.27 -225.79,-391.08 -271.49,-837.44 -163.1,-1241.97 108.47,-404.79 371.01,-768.52 761.59,-994.02 225.99,-130.48 284.22,-163.8 339.65,-195.52 672.88,-385.09 994.76,-569.29 1114.41,-787.1 109.64,-199.57 104.83,-525 95.6,-1148.77 -3.51,-238.13 -7.54,-509.93 -7.54,-690.42 0,-451.16 183.85,-860.59 480.38,-1157.12 296.53,-296.53 705.96,-480.38 1157.12,-480.38 182.6,0 112.08,1.13 390.23,2.19 776.19,2.95 1147.48,4.36 1360.49,-124.73 192.98,-116.94 351.65,-401.4 655.76,-946.6 102.05,-182.94 218.45,-391.63 340.37,-602.8l0.54 0.31c226.09,-391.03 589.53,-653.66 993.47,-761.9 404.55,-108.39 850.9,-62.69 1241.98,163.1 121.07,69.9 233.21,135.22 337.46,195.93 670.66,390.61 991.48,577.45 1240.38,572.17 225.55,-4.78 505.12,-171.75 1040.95,-491.77 178.64,-106.69 382.35,-228.36 595.27,-351.29 391.08,-225.79 837.44,-271.49 1241.97,-163.1 404.79,108.47 768.52,371.01 994.02,761.59l-0.55 0.32 0.55 0.92c210.55,364.7 187.48,324.36 195.53,338.42 385.08,672.86 569.28,994.73 787.1,1114.4 199.57,109.64 525,104.83 1148.78,95.6 238.12,-3.51 509.92,-7.54 690.4,-7.54 451.16,0 860.59,183.85 1157.12,480.38 296.53,296.53 480.38,705.96 480.38,1157.12 0,182.6 -1.13,112.08 -2.19,390.23 -2.95,776.19 -4.36,1147.48 124.73,1360.49 116.94,192.98 401.4,351.65 946.6,655.76 182.94,102.05 391.63,218.45 602.8,340.37l-0.31 0.54c391.03,226.09 653.66,589.53 761.9,993.47 108.39,404.55 62.69,850.9 -163.1,1241.98 -69.9,121.07 -135.22,233.21 -195.93,337.46 -390.61,670.66 -577.45,991.48 -572.17,1240.38 4.78,225.55 171.75,505.12 491.77,1040.95 106.69,178.64 228.36,382.35 351.29,595.27 225.79,391.08 271.49,837.44 163.1,1241.97 -108.47,404.79 -371.01,768.52 -761.59,994.02l-0.32 -0.55 -0.92 0.55c-364.7,210.55 -324.36,187.48 -338.42,195.53 -672.86,385.08 -994.73,569.28 -1114.4,787.1 -109.64,199.57 -104.83,525 -95.6,1148.78 3.51,238.12 7.54,509.92 7.54,690.4 0,451.16 -183.85,860.59 -480.38,1157.12 -296.53,296.53 -705.96,480.38 -1157.12,480.38 -182.6,0 -112.08,-1.13 -390.23,-2.19 -776.19,-2.95 -1147.48,-4.36 -1360.49,124.73 -192.98,116.94 -351.65,401.4 -655.76,946.6 -102.05,182.94 -218.45,391.63 -340.37,602.8l-0.54 -0.31c-226.09,391.03 -589.53,653.66 -993.47,761.9 -404.55,108.39 -850.9,62.69 -1241.98,-163.1 -121.07,-69.9 -233.21,-135.22 -337.46,-195.93 -670.66,-390.61 -991.48,-577.45 -1240.38,-572.17 -225.55,4.78 -505.12,171.75 -1040.95,491.77 -178.64,106.69 -382.35,228.36 -595.27,351.29 -391.08,225.79 -837.44,271.49 -1241.97,163.1 -404.79,-108.47 -768.52,-371.01 -994.02,-761.59l0.55 -0.32 -0.55 -0.92c-210.55,-364.7 -187.48,-324.36 -195.53,-338.42 -385.08,-672.86 -569.28,-994.73 -787.1,-1114.4 -199.57,-109.64 -525,-104.83 -1148.78,-95.6 -238.12,3.51 -509.92,7.54 -690.4,7.54 -451.16,0 -860.59,-183.85 -1157.12,-480.38zm3098.15 -4830.94l0 -3889.38c0,-175.35 142.15,-317.5 317.5,-317.5l1917.57 0c219.49,-337.17 418.89,-602.62 632.81,-854.35 241.65,-284.35 500.59,-549.58 828.84,-882.14 254.06,-257.43 394.96,-419.9 471.96,-616.97 81.98,-209.85 112.83,-497.01 145.28,-1000.13 6.19,-98.66 56.9,-183.93 131.35,-237.49 411.08,-312.41 726.67,-388.45 1027.23,-257.8 268.96,116.91 460.04,392.45 665.84,807.97 181.3,366.09 295.28,651.95 280.53,979.52 -14.72,327.03 -158.28,650.5 -492.09,1072.22 -80.08,101.17 -191.17,327.34 -238.85,543.09 -22.13,100.13 -33.56,180.84 -19.57,197.42 1.63,1.93 10.94,5.57 29.79,11.33 51.54,15.73 125.31,23.72 225.75,22.65l1852.23 -19.92c119.16,-1.28 221.91,25.58 309.45,73.86 123.89,68.33 209.28,172.6 262.58,297.04 42.94,100.22 62.88,214.3 64.13,330.32 2.06,191.23 -50.02,397.22 -133.27,548.18 -14.12,25.62 -24.18,51.02 -23.91,80.42 0.51,55.92 22,139.47 77.11,270.79 154.45,367.99 53.54,694.81 -37.07,988.24 -41.92,135.78 -80.19,259.7 -66.1,303.2 193.11,596.22 -51.18,846.5 -379.75,1183.09l-6.89 7.06c-56.87,444.42 -125.23,785.99 -328.84,1047.78 -234.99,302.15 -599.02,447.84 -1235.49,434.99l-1614.1 -32.61c-472,-9.53 -784.52,-29.01 -1089.42,-119.19 -290.4,-85.88 -551.89,-228.33 -906.84,-476.75l-2373.82 -178.68c-166.76,-12.42 -293.75,-151.68 -293.58,-316.26l-0.36 0zm635 -3571.88l0 3277.74 2166.69 163.09 -0.04 0.49c55.77,4.1 111.15,23.02 160.03,57.8 333.65,238.32 559,367.96 791.52,436.73 237.63,70.29 507.86,86.01 923.22,94.39l1614.1 32.61c406.32,8.2 616.54,-56.27 722.03,-191.91 120.94,-155.5 165.43,-446.02 213.06,-838.98l0.51 0.06c7.71,-65.69 35.97,-129.53 85.07,-181.13 25.15,-26.36 55.13,-57.06 84.23,-86.87 175.89,-180.19 306.67,-314.18 230.91,-548.09 -75.34,-232.62 -9.04,-447.4 63.62,-682.72 58.26,-188.67 123.14,-398.83 56.91,-556.64 -88.28,-210.33 -122.95,-373.02 -124.23,-511.39 -1.52,-164.87 40.97,-281.95 100.81,-390.48 35.25,-63.92 57.28,-153.33 56.37,-238.12 -0.29,-27.72 -3.32,-52.99 -9.57,-73.54l-1841.34 19.8c-166.17,1.78 -302.49,-15.8 -414.27,-49.93 -144.48,-44.13 -251.83,-114.76 -329.93,-207.29 -162.06,-192.04 -175.33,-467.33 -114.37,-743.12 67.83,-306.89 236.46,-642.02 360.39,-798.59 243.55,-307.69 347.24,-520.13 355.67,-707.58 8.42,-186.93 -78.49,-394.21 -216.03,-671.94 -141.03,-284.75 -250.3,-464.16 -350.82,-507.85 -53.83,-23.4 -142.44,8 -283.14,103.72 -34.23,480.63 -75.26,780.63 -177.36,1041.96 -117.27,300.14 -295.68,510.91 -610.88,830.29 -316.83,321 -566.53,576.73 -796.58,847.42 -223.1,262.52 -428.97,540.75 -662.92,910.55 -53.2,100.8 -159.04,169.52 -280.95,169.52l-1772.71 0z"/>
 </g>
</svg>
