<?xml version="1.0" encoding="utf-8"?>
<!-- Generator: Adobe Illustrator 20.0.0, SVG Export Plug-In . SVG Version: 6.00 Build 0)  -->
<svg version="1.1" id="Слой_1" xmlns="http://www.w3.org/2000/svg" xmlns:xlink="http://www.w3.org/1999/xlink" x="0px" y="0px" width="180" height="180"
	 viewBox="0 0 62 72" style="enable-background:new 0 0 62 72;" xml:space="preserve">
<style type="text/css">
	.st0{fill:#FFF;}
</style>
<title>Ресурс 1</title>
<g id="Слой_2">
	<g id="Слой_1-2">
		<path class="st0" d="M58.5,50.6C57.4,43.2,53,21.9,38.7,16c1.1-1.7,1.7-3.6,1.7-5.6c-0.2-5.8-5-10.3-10.7-10.1
			c-5.5,0.2-9.9,4.6-10.1,10.1c0,2.2,0.7,4.4,2.1,6.2C8.3,23.3,4.3,43.7,3.3,50.7l0,0C1.3,51.3,0,53.1,0,55.1v12.3
			c0,2,1.3,3.8,3.2,4.4c0.1,0.1,0.2,0.1,0.4,0.2h0.1c0.1,0,0.3,0,0.4,0H58c0.1,0,0.2,0,0.3-0.1c2.1-0.4,3.7-2.3,3.7-4.4V55.1
			C62,52.9,60.5,51.1,58.5,50.6z M30,1.6c4.9,0,8.8,4,8.8,8.9s-4,8.8-8.9,8.8c-4.9,0-8.8-4-8.8-8.9c0,0,0,0,0,0
			C21.2,5.5,25.1,1.6,30,1.6C30,1.6,30,1.6,30,1.6z M22.7,17.9c4.1,4,10.7,3.9,14.7-0.2c0.1-0.1,0.2-0.2,0.3-0.3
			c13.7,5.3,18,25.7,19.2,33.2h-52C6,43.3,10,23.9,22.7,17.9z M54,52v18.4h-1.6V52H54z M47.6,52v18.4H46V52H47.6z M41.2,52v18.4
			h-1.6V52H41.2z M34.9,52v18.4h-1.6V52H34.9z M28.5,52v18.4h-1.6V52H28.5z M22.1,52v18.4h-1.6V52H22.1z M15.7,52v18.4H14V52H15.7z
			 M9.3,52v18.4H7.7V52H9.3z M1.6,67.4V55.1c0-1,0.5-1.9,1.3-2.5v17.3C2.1,69.4,1.6,68.4,1.6,67.4z M4.6,70.4H4.5V52.1h0.1h1.5v18.4
			L4.6,70.4z M10.9,70.4V52h1.6v18.4L10.9,70.4z M17.2,70.4V52h1.6v18.4L17.2,70.4z M23.6,70.4V52h1.6v18.4L23.6,70.4z M30,70.4V52
			h1.6v18.4L30,70.4z M36.4,70.4V52H38v18.4L36.4,70.4z M42.8,70.4V52h1.6v18.4L42.8,70.4z M49.2,70.4V52h1.6v18.4L49.2,70.4z
			 M55.6,70.4V52h1.6v18.4L55.6,70.4z M60.4,67.4c0,1.1-0.6,2.2-1.6,2.7V52.4c1,0.5,1.6,1.5,1.6,2.7V67.4z"/>
	</g>
</g>
</svg>
