<?xml version="1.0" encoding="utf-8"?>
<!-- Generator: Adobe Illustrator 20.0.0, SVG Export Plug-In . SVG Version: 6.00 Build 0)  -->
<svg version="1.1" id="icons" xmlns="http://www.w3.org/2000/svg" xmlns:xlink="http://www.w3.org/1999/xlink" x="0px" y="0px" width="180" height="180"
	 viewBox="0 0 512 512" style="enable-background:new 0 0 512 512;" xml:space="preserve">
<style type="text/css">
	.st0{fill:#FFF;}
</style>
<g>
	<path class="st0" d="M20,408.6c0,0.1,0,0.1,0,0.2v39.8c0,4.4,3.6,8,8,8h48c4.4,0,8-3.6,8-8h160c0,4.4,3.6,8,8,8h48c4.4,0,8-3.6,8-8
		v-272c0-30.9-25.1-56-56-56h-24v-15.7c0-1.2-0.1-2.3-0.6-3.4c-1.3-3.1-4.3-4.9-7.5-4.8H108.1c-1.1,0-2.2,0.2-3.1,0.6
		c-0.4,0.2-0.7,0.5-1.1,0.7c-0.5,0.3-1,0.6-1.4,1c-0.7,0.7-1.2,1.5-1.6,2.4c0,0.1-0.1,0.1-0.1,0.2l0,0c-0.2,0.6-0.3,1.2-0.4,1.8
		c-0.1,0.4-0.3,0.9-0.3,1.3l0,0v16H76c-30.9,0-56,25.1-56,56v79.8c0,0.1,0,0.1,0,0.2s0,0.1,0,0.2V408.6C20,408.5,20,408.5,20,408.6
		L20,408.6z M44,384.6c0,5.9-3.2,11-8,13.8V266.8c4.7,2.8,8,7.9,8,13.8V384.6z M116,123.3v-6.6l44.8,19.2c0.1,0,0.2,0,0.3,0.1
		c0.9,0.3,1.8,0.6,2.8,0.6s1.9-0.2,2.8-0.6c0.1,0,0.2,0,0.3-0.1l44.8-19.2v6.6l-48,20.6L116,123.3z M164,119.9l-17-7.3h34.1
		L164,119.9z M284,280.5c0-5.9,3.3-11,8-13.8v131.6c-4.8-2.8-8-7.9-8-13.8V280.5z M292.1,176.6v73.1c-13.8,3.6-24,16-24,30.9v104
		c0,14.9,10.2,27.3,24,30.9v25.1h-32v-224c0-4.4-3.6-8-8-8s-8,3.6-8,8v216.1h-72V157.9l49.7-21.3h30.4
		C274.1,136.6,292.1,154.5,292.1,176.6L292.1,176.6z M76,136.6h30.4l49.6,21.3v274.7H84V216.5c0-4.4-3.6-8-8-8s-8,3.6-8,8v224H36
		v-25.1c13.8-3.6,24-16,24-30.8v-104c0-14.9-10.2-27.3-24-30.8v-73.1C36,154.5,54,136.6,76,136.6L76,136.6z"/>
	<path class="st0" d="M318.2,98.5c-1.5,1.6-2.3,3.8-2.2,6l1.3,21.8c-0.1,0.6-0.4,1.1-0.4,1.8c0,1.1,0.2,2.2,0.6,3.2L340,504.5
		c0.2,4.2,3.8,7.5,8,7.5h128c4.2,0,7.7-3.3,8-7.5l22.4-373.3c0.4-1,0.7-2,0.7-3.2c0-0.6-0.2-1.2-0.4-1.8l1.3-21.7
		c0.1-2.2-0.6-4.4-2.2-6c-1.5-1.6-3.6-2.5-5.8-2.5H324C321.8,96,319.7,96.9,318.2,98.5L318.2,98.5z M468,328v-88
		c0-10.8,7.3-19.9,17.2-22.9L478.1,336h-2C471.6,336,468,332.4,468,328z M486.2,200.6C466.9,203.4,452,220,452,240v88
		c0,13.2,10.8,24,24,24l0,0h1l-7.2,120H420V200c0-4.4-3.6-8-8-8s-8,3.6-8,8v272h-49.9l-7.2-120h1l0,0c13.2,0,24-10.8,24-24v-88
		c0-20.1-14.9-36.6-34.2-39.4L334,136h156.1L486.2,200.6z M356,328c0,4.4-3.6,8-8,8h-2l-7.2-118.9c9.9,3,17.2,12,17.2,22.9V328
		L356,328z M355.1,488H404v8h-48.4L355.1,488z M420,496v-8h48.9l-0.5,8H420z M491.5,112l-0.5,8H333l-0.5-8H491.5z"/>
</g>
</svg>
