<?xml version="1.0" encoding="utf-8"?>
<!-- Generator: Adobe Illustrator 20.0.0, SVG Export Plug-In . SVG Version: 6.00 Build 0)  -->
<svg version="1.1" id="Слой_1" xmlns="http://www.w3.org/2000/svg" xmlns:xlink="http://www.w3.org/1999/xlink" x="0px" y="0px" width="180" height="180"
	 viewBox="0 0 66 72" style="enable-background:new 0 0 66 72;" xml:space="preserve">
<style type="text/css">
	.st0{fill:#56739F;}
</style>
<path class="st0" d="M33,68.5c-11,0-14.2-1.3-17.5-2.7c-0.5-0.2-1-0.4-1.5-0.6c-0.5-0.2-0.8-0.6-0.8-1.1c-0.7-9-0.3-19.7,0.3-28.9
	c-1.1,5.5-1.7,12-1.4,17c0.2,3-0.1,3.9-0.6,5c-0.1,0.3-0.2,0.6-0.3,1c-0.1,1.6-0.2,3.4-0.3,5.2c0,0.5-0.4,1-0.9,1.1
	c-2.2,0.6-4.4,0.6-6.7,0c-0.6-0.1-0.9-0.6-0.9-1.2v-4.4c-1-1.2-1.4-2.8-1.2-4.2c0.5-2.8,0.3-5.6,0-8.5c-0.3-3.2-0.6-6.5,0.2-10
	c0.4-1.8,0.8-3.7,1.2-5.6c1.9-9.6,4-19.5,10.5-21.3c3.8-1.1,5.7-1.8,7.2-2.5l0.2-0.1c0.8-2.4,1.7-4,4.1-5.5c0.6-0.4,1.4-0.2,1.7,0.4
	c0.4,0.6,0.2,1.3-0.4,1.7c-1.9,1.2-2.5,2.4-3.2,4.7c-0.1,0.4-0.4,0.7-0.7,0.8l-0.7,0.3c-1.6,0.6-3.5,1.4-7.5,2.5
	c-5.1,1.4-7,11-8.7,19.4c-0.4,2-0.8,3.9-1.2,5.7C3,39.9,3.3,42.8,3.6,46c0.3,2.9,0.6,6,0,9.1c-0.1,0.8,0.2,1.8,0.9,2.4
	c0.2,0.2,0.4,0.6,0.4,0.9v3.9c1.3,0.2,2.5,0.2,3.7,0c0.1-1.4,0.2-2.9,0.2-4.3c0.1-0.8,0.3-1.3,0.5-1.7c0.3-0.6,0.5-1.3,0.4-3.9
	c-0.5-9.1,1.7-22.7,4.7-27.9c0.3-0.5,0.9-0.7,1.4-0.6c0.6,0.2,0.9,0.7,0.9,1.3l-0.1,2.2c-0.7,10.3-1.6,24.4-0.8,35.8
	c0.3,0.1,0.6,0.2,0.9,0.3c3.3,1.3,6.1,2.5,16.6,2.5c0.7,0,1.2,0.6,1.2,1.2C34.3,68,33.7,68.5,33,68.5z"/>
<path class="st0" d="M33,72c-0.7,0-1.2-0.6-1.2-1.2V17.7c0-0.7,0.6-1.2,1.2-1.2c0.7,0,1.2,0.6,1.2,1.2v53.1C34.3,71.4,33.7,72,33,72
	z"/>
<path class="st0" d="M9.7,59.6H3.7c-0.7,0-1.2-0.6-1.2-1.2c0-0.7,0.6-1.2,1.2-1.2h6.1c0.7,0,1.2,0.6,1.2,1.2
	C11,59,10.4,59.6,9.7,59.6z"/>
<path class="st0" d="M33,72c-8,0-13.2-1.3-16.9-2.2l-0.9-0.2c-0.6-0.2-1-0.8-0.9-1.4c0.1-0.6,0.2-1.1,0.2-1.5
	c0.1-0.6,0.2-1.2,0.3-2.1c0.1-0.7,0.8-1.1,1.5-1c0.7,0.1,1.1,0.8,1,1.5c-0.2,0.8-0.2,1.3-0.3,1.9c0,0.2,0,0.3-0.1,0.5
	c3.8,0.9,8.6,2.1,16.1,2.1c0.7,0,1.2,0.6,1.2,1.2C34.3,71.4,33.7,72,33,72z"/>
<path class="st0" d="M17.8,60.1c-0.5,0-1-0.3-1.2-0.8c-0.2-0.7,0.1-1.4,0.8-1.6c4.9-1.7,7.8-4.5,8.9-8.6c0.2-0.7,0.8-1.1,1.5-0.9
	c0.7,0.2,1.1,0.8,0.9,1.5c-1.2,4.9-4.8,8.4-10.5,10.4C18,60,17.9,60.1,17.8,60.1z"/>
<path class="st0" d="M33,18.9c-0.2,0-0.4,0-0.6-0.1c-1.3-0.7-2.6-1.3-3.6-1.9c-6-3.1-8.5-4.3-8.8-9.2c0-0.7,0.5-1.3,1.2-1.3
	c0.7-0.1,1.3,0.5,1.3,1.2c0.2,3.1,1.3,3.9,6.3,6.5c-0.4-0.5-0.7-0.9-1-1.3c-3.1-4.1-3.2-4.3-4-9.6l-0.1-0.7c-0.1-0.7,0.4-1.3,1-1.4
	c0.7-0.1,1.3,0.4,1.4,1l0.1,0.7c0.7,4.8,0.7,4.8,3.5,8.5c1,1.3,2.4,3.1,4.2,5.6c0.3,0.5,0.3,1.1-0.1,1.5
	C33.7,18.8,33.4,18.9,33,18.9z"/>
<path class="st0" d="M25,3.5c-0.5,0-1.1-0.4-1.2-0.9C23.6,2,24,1.3,24.7,1.1c5.4-1.5,11-1.5,16.6,0C42,1.3,42.4,2,42.2,2.6
	c-0.2,0.7-0.8,1.1-1.5,0.9c-5.2-1.4-10.3-1.4-15.3,0C25.2,3.5,25.1,3.5,25,3.5z"/>
<path class="st0" d="M39.7,8.6c-0.1,0-0.2,0-0.3,0c-4.3-0.9-8.5-1-12.7,0c-0.7,0.2-1.3-0.3-1.5-0.9c-0.1-0.7,0.3-1.3,0.9-1.5
	c4.5-1,9.1-1,13.7,0c0.7,0.1,1.1,0.8,0.9,1.5C40.8,8.2,40.3,8.6,39.7,8.6z"/>
<path class="st0" d="M33,18.9c-0.3,0-0.7-0.1-0.9-0.4c-0.4-0.4-0.4-1.1-0.1-1.5c1.8-2.6,3.2-4.4,4.2-5.7C39,7.6,39,7.6,39.7,2.7
	l0.1-0.6c0.1-0.7,0.7-1.2,1.4-1.1c0.7,0.1,1.2,0.7,1.1,1.4L42.1,3c-0.8,5.4-0.8,5.6-4,9.7c-0.3,0.4-0.7,0.9-1,1.4
	c5-2.6,6.2-3.5,6.3-6.5c0-0.7,0.6-1.2,1.3-1.2c0.7,0,1.2,0.6,1.2,1.3c-0.2,4.8-2.7,6.1-8.7,9.1c-1.1,0.6-2.3,1.2-3.6,1.9
	C33.4,18.9,33.2,18.9,33,18.9z"/>
<path class="st0" d="M33,68.5c-0.7,0-1.2-0.6-1.2-1.2c0-0.7,0.6-1.2,1.2-1.2c10.4,0,13.3-1.2,16.6-2.5c0.3-0.1,0.6-0.2,0.9-0.3
	c0.8-11.4-0.2-25.5-0.8-35.8l-0.1-2.2c0-0.6,0.3-1.1,0.9-1.3c0.6-0.2,1.2,0.1,1.4,0.6c3,5.2,5.2,18.8,4.7,27.9
	c-0.2,2.6,0.1,3.2,0.4,3.9c0.2,0.4,0.3,0.8,0.5,1.5c0.1,1,0.1,1.9,0.2,2.8c0,0.6,0.1,1.1,0.1,1.7c1.2,0.2,2.4,0.2,3.7,0v-3.9
	c0-0.3,0.1-0.7,0.4-0.9c0.6-0.6,0.9-1.6,0.8-2.4c-0.6-3.2-0.3-6.2,0-9.1c0.3-3.2,0.6-6.1-0.1-9.2c-0.4-1.8-0.8-3.7-1.2-5.7
	c-1.7-8.4-3.7-18-8.7-19.4c-3.9-1.1-5.9-1.9-7.5-2.5l-0.7-0.3c-0.4-0.1-0.6-0.4-0.7-0.8c-0.7-2.3-1.3-3.5-3.2-4.7
	c-0.6-0.4-0.8-1.1-0.4-1.7c0.4-0.6,1.1-0.8,1.7-0.4c2.3,1.5,3.3,3.1,4.1,5.5l0.1,0.1c1.5,0.6,3.4,1.4,7.2,2.5
	c6.5,1.8,8.5,11.7,10.5,21.3c0.4,1.9,0.8,3.9,1.2,5.6c0.8,3.5,0.5,6.8,0.2,10c-0.3,2.9-0.5,5.6,0,8.5c0.2,1.4-0.2,3.1-1.2,4.2v4.4
	c0,0.6-0.4,1.1-0.9,1.2c-2.4,0.6-4.6,0.6-6.8,0c-0.5-0.1-0.9-0.6-0.9-1.1c0-0.9-0.1-1.8-0.1-2.6c-0.1-0.9-0.1-1.8-0.1-2.7
	c-0.1-0.3-0.2-0.5-0.3-0.8c-0.4-1-0.7-2-0.6-5c0.3-5-0.3-11.5-1.4-17c0.5,9.3,0.9,19.9,0.3,28.9c0,0.5-0.3,0.9-0.8,1.1
	c-0.5,0.2-1,0.4-1.5,0.6C47.1,67.2,43.9,68.5,33,68.5z"/>
<path class="st0" d="M62.3,59.6h-6c-0.7,0-1.2-0.6-1.2-1.2c0-0.7,0.6-1.2,1.2-1.2h6c0.7,0,1.2,0.6,1.2,1.2
	C63.6,59,63,59.6,62.3,59.6z"/>
<path class="st0" d="M33,72c-0.7,0-1.2-0.6-1.2-1.2s0.6-1.2,1.2-1.2c7.5,0,12.3-1.1,16.1-2.1c0-0.2,0-0.3-0.1-0.5
	c-0.1-0.6-0.1-1.1-0.3-1.9c-0.1-0.7,0.3-1.3,1-1.5c0.7-0.1,1.3,0.3,1.5,1c0.2,0.9,0.2,1.5,0.3,2.1c0.1,0.4,0.1,0.9,0.2,1.5
	c0.1,0.6-0.3,1.3-0.9,1.4l-0.9,0.2C46.1,70.7,41,72,33,72z"/>
<path class="st0" d="M48.2,60.1c-0.1,0-0.3,0-0.4-0.1c-5.7-1.9-9.2-5.4-10.5-10.4c-0.2-0.7,0.2-1.3,0.9-1.5c0.7-0.2,1.3,0.2,1.5,0.9
	c1,4.1,3.9,6.9,8.9,8.6c0.7,0.2,1,0.9,0.8,1.6C49.2,59.7,48.8,60.1,48.2,60.1z"/>
</svg>
