<?xml version="1.0" encoding="utf-8"?>
<!-- Generator: Adobe Illustrator 20.0.0, SVG Export Plug-In . SVG Version: 6.00 Build 0)  -->
<svg version="1.1" id="Слой_1" xmlns="http://www.w3.org/2000/svg" xmlns:xlink="http://www.w3.org/1999/xlink" x="0px" y="0px" width="180" height="180"
	 viewBox="0 0 56 72" style="enable-background:new 0 0 56 72;" xml:space="preserve">
<style type="text/css">
	.st0{fill:#56739F;}
</style>
<path class="st0" d="M15,8.6V4.3c0-0.3,0.3-0.9,0.3-1.2C17.6,1.2,22,0,28,0c6,0,10.4,1.2,12.7,3.2C40.7,3.5,41,4,41,4.3v4.3h4.3
	c6.6,0,10.1,3.5,10.1,10.1V59c0,2.3-2,4.3-4.3,4.3h-4.3v1.4c0,2.3-2,4.3-4.3,4.3H13.6c-2.3,0-4.3-2-4.3-4.3v-1.4H5
	c-2.3,0-4.3-2-4.3-4.3V18.7c0-6.6,3.5-10.1,10.1-10.1H15z M17.9,10.1c0,0.9-0.6,1.4-1.4,1.4h-5.8c-4.9,0-7.2,2.3-7.2,7.2V59
	c0,0.9,0.6,1.4,1.4,1.4h5.8c0.9,0,1.4,0.6,1.4,1.4v2.9c0,0.9,0.6,1.4,1.4,1.4h28.8c0.9,0,1.4-0.6,1.4-1.4v-2.9
	c0-0.9,0.6-1.4,1.4-1.4H51c0.9,0,1.4-0.6,1.4-1.4V18.7c0-4.9-2.3-7.2-7.2-7.2h-5.8c-0.9,0-1.4-0.6-1.4-1.4V4.9
	c-1.7-1.2-5.2-2-10.1-2s-8.4,0.9-10.1,2V10.1z"/>
<path class="st0" d="M29.4,13.5v54.1c0,0.9-0.6,1.4-1.4,1.4c-0.9,0-1.4-0.6-1.4-1.4v-59c-3.5-0.3-7.2-1.2-10.7-2.9
	c-0.9-0.6-1.2-1.4-0.6-2c0.3-0.9,1.2-1.2,1.7-0.6c3.7,1.7,7.2,2.6,10.9,2.6s7.2-0.9,10.9-2.6c0.6-0.3,1.4,0,2,0.6
	c0.3,0.6,0,1.4-0.6,2c-3.5,1.7-7.2,2.9-10.7,2.9v0.9l2.6,2.6c0.6,0.6,0.6,1.4,0,2c-0.6,0.6-1.4,0.6-2,0L29.4,13.5z M45.3,63.4h4.3
	v-1.4c0-0.9,0.6-1.4,1.4-1.4s1.4,0.6,1.4,1.4v2.9c0,0.9-0.6,1.4-1.4,1.4h-5.8c-0.9,0-1.4-0.6-1.4-1.4C43.8,63.9,44.4,63.4,45.3,63.4
	z M6.4,61.9v1.4h4.3c0.9,0,1.4,0.6,1.4,1.4c0,0.9-0.6,1.4-1.4,1.4H5c-0.9,0-1.4-0.6-1.4-1.4v-2.9c0-0.9,0.6-1.4,1.4-1.4
	C5.8,60.5,6.4,61.1,6.4,61.9z M41,69.1v-1.4c0-0.9,0.6-1.4,1.4-1.4c0.9,0,1.4,0.6,1.4,1.4v2.9c0,0.9-0.6,1.4-1.4,1.4H13.6
	c-0.9,0-1.4-0.6-1.4-1.4v-2.9c0-0.9,0.6-1.4,1.4-1.4c0.9,0,1.4,0.6,1.4,1.4v1.4H41z M46.7,61.9c0,0.9-0.6,1.4-1.4,1.4
	c-0.9,0-1.4-0.6-1.4-1.4l0-37.4c0-0.9,0.6-1.4,1.4-1.4c0.9,0,1.4,0.6,1.4,1.4V61.9z M12.2,61.9c0,0.9-0.6,1.4-1.4,1.4
	c-0.9,0-1.4-0.6-1.4-1.4V24.5c0-0.9,0.6-1.4,1.4-1.4c0.9,0,1.4,0.6,1.4,1.4L12.2,61.9z"/>
</svg>
