<?xml version="1.0" encoding="utf-8"?>
<!-- Generator: Adobe Illustrator 20.0.0, SVG Export Plug-In . SVG Version: 6.00 Build 0)  -->
<svg version="1.1" id="Слой_1" xmlns="http://www.w3.org/2000/svg" xmlns:xlink="http://www.w3.org/1999/xlink" x="0px" y="0px" width="180" height="180"
	 viewBox="0 0 72 60" style="enable-background:new 0 0 72 60;" xml:space="preserve">
<style type="text/css">
	.st0{fill:#56739F;}
</style>
<g id="Слой_x0020_1">
	<g id="_2030677856992">
		<g>
			<path class="st0" d="M51,0h-7.5c0,4.1-3.4,7.5-7.5,7.5S28.5,4.1,28.5,0H21L0,12l6,16.5l9-3V60h42V25.5l9,3L72,12C72,12,51,0,51,0
				z M64.2,24.7l-6.2-2.1L54,21.3v4.2V57l-36,0V25.5v-4.2l-3.9,1.3l-6.2,2.1L3.7,13.4L21.8,3h4.1c1.3,4.3,5.3,7.5,10.1,7.5
				c4.8,0,8.8-3.2,10.1-7.5h4.1l18.1,10.3C68.3,13.4,64.2,24.7,64.2,24.7z"/>
		</g>
	</g>
	<g id="_2030677859264">
	</g>
	<g id="_2030677860544">
	</g>
	<g id="_2030677859040">
	</g>
	<g id="_2030677862432">
	</g>
	<g id="_2030677862304">
	</g>
	<g id="_2030677861120">
	</g>
	<g id="_2030677867488">
	</g>
	<g id="_2030677870208">
	</g>
	<g id="_2030677870752">
	</g>
	<g id="_2030677869888">
	</g>
	<g id="_2030677872352">
	</g>
	<g id="_2030677871360">
	</g>
	<g id="_2030677871936">
	</g>
	<g id="_2030677874464">
	</g>
	<g id="_2030677873024">
	</g>
</g>
</svg>
