<svg xmlns="http://www.w3.org/2000/svg" version="1.1" xmlns:xlink="http://www.w3.org/1999/xlink" xmlns:svgjs="http://svgjs.com/svgjs" width="512" height="512" x="0" y="0" viewBox="0 0 64 64" style="enable-background:new 0 0 512 512" xml:space="preserve" class=""><g><path d="M59.36,32A3.644,3.644,0,0,0,63,28.36a3.6,3.6,0,0,0-.133-.974l-4.3-15.5a9.5,9.5,0,0,0-6.149-6.47l-13.1-4.365A1,1,0,0,0,39,1H25a1,1,0,0,0-.316.052l-13.1,4.365a9.5,9.5,0,0,0-6.149,6.47l-4.3,15.5A3.6,3.6,0,0,0,1,28.36,3.644,3.644,0,0,0,4.64,32H13V62a1,1,0,0,0,1,1H62a1,1,0,0,0,1-1v-16.4a12.86,12.86,0,0,0-2-6.887V35a1,1,0,0,0-1-1H51V32ZM56.635,12.422l4.305,15.5A1.64,1.64,0,0,1,59.36,30H51V27.129l4.491-17.066A7.494,7.494,0,0,1,56.635,12.422ZM53.859,8.406,49.1,26.485,41.586,34H30a1,1,0,0,0-1,1v3.718a12.86,12.86,0,0,0-2,6.887v2.981l-12,12V27.449L32.4,11.985c5.686-.141,10.378-3.254,11.392-7.335l7.99,2.663A7.581,7.581,0,0,1,53.859,8.406ZM27,61H17.414L27,51.414Zm3.558-21h8.028L29,49.586V45.605A10.863,10.863,0,0,1,30.558,40ZM32,8c3.806,0,6.994-2,7.8-4.68l2.084.695C41.177,7.394,37.02,10,32,10s-9.177-2.606-9.883-5.985L24.2,3.32C25.006,6,28.194,8,32,8ZM26.206,3H37.794C37.107,4.7,34.736,6,32,6S26.893,4.7,26.206,3ZM12.22,7.313,20.211,4.65c.891,3.586,4.617,6.432,9.367,7.165L14.553,25.171,10.141,8.406A7.589,7.589,0,0,1,12.22,7.313ZM4.64,30a1.64,1.64,0,0,1-1.58-2.079l4.305-15.5a7.5,7.5,0,0,1,1.144-2.359L13,27.129V30ZM29,52.414,41.414,40H52.586l-21,21H29ZM44.246,61,45,57.609,45.754,61ZM61,61H47.8l-1.826-8.217a1,1,0,0,0-1.952,0L42.2,61H34.414l21-21h4.028A10.863,10.863,0,0,1,61,45.605ZM59,38H31V36H59ZM44.414,34,49,29.414V34Z" fill="#000000" data-original="#000000" class=""></path></g></svg>